<?xml version="1.0" encoding="utf-8"?>
<!-- Generator: Adobe Illustrator 21.1.0, SVG Export Plug-In . SVG Version: 6.00 Build 0)  -->
<svg version="1.1" id="Layer_1" xmlns="http://www.w3.org/2000/svg" xmlns:xlink="http://www.w3.org/1999/xlink" x="0px" y="0px"
	 viewBox="0 0 24 24" enable-background="new 0 0 24 24" xml:space="preserve">
<g>
	<path fill="#868686" d="M5.8,17c-0.6,0-1.1,0.2-1.5,0.6c-0.4,0.4-0.6,0.9-0.6,1.5c0,0.6,0.2,1.1,0.6,1.5c0.4,0.4,0.9,0.6,1.5,0.6
		c0.6,0,1.1-0.2,1.5-0.6c0.4-0.4,0.6-0.9,0.6-1.5c0-0.6-0.2-1.1-0.6-1.5C6.9,17.2,6.4,17,5.8,17L5.8,17z M5.8,17"/>
	<path fill="#868686" d="M5.3,12.5c0-0.7-0.2-1.2-0.7-1.7c-0.5-0.5-1-0.7-1.7-0.7c-0.7,0-1.2,0.2-1.7,0.7c-0.5,0.5-0.7,1-0.7,1.7
		c0,0.7,0.2,1.2,0.7,1.7c0.5,0.5,1,0.7,1.7,0.7c0.7,0,1.2-0.2,1.7-0.7C5,13.7,5.3,13.1,5.3,12.5L5.3,12.5z M5.3,12.5"/>
	<path fill="#868686" d="M19.2,7c0.3,0,0.6-0.1,0.8-0.4c0.2-0.2,0.4-0.5,0.4-0.8c0-0.3-0.1-0.6-0.4-0.8c-0.2-0.2-0.5-0.4-0.8-0.4
		c-0.3,0-0.6,0.1-0.8,0.4C18.1,5.1,18,5.4,18,5.8c0,0.3,0.1,0.6,0.4,0.8C18.6,6.8,18.9,7,19.2,7L19.2,7z M19.2,7"/>
	<path fill="#868686" d="M5.8,3.1C5,3.1,4.4,3.4,3.9,3.9C3.4,4.4,3.1,5,3.1,5.8c0,0.7,0.3,1.4,0.8,1.9C4.4,8.1,5,8.4,5.8,8.4
		s1.4-0.3,1.9-0.8c0.5-0.5,0.8-1.1,0.8-1.9S8.1,4.4,7.6,3.9C7.1,3.4,6.5,3.1,5.8,3.1L5.8,3.1z M5.8,3.1"/>
	<path fill="#868686" d="M23.1,11.5c-0.3-0.3-0.6-0.4-1-0.4c-0.4,0-0.7,0.1-1,0.4c-0.3,0.3-0.4,0.6-0.4,1c0,0.4,0.1,0.7,0.4,1
		c0.3,0.3,0.6,0.4,1,0.4c0.4,0,0.7-0.1,1-0.4c0.3-0.3,0.4-0.6,0.4-1C23.5,12.1,23.4,11.7,23.1,11.5L23.1,11.5z M23.1,11.5"/>
	<path fill="#868686" d="M19.2,17.5c-0.5,0-0.9,0.2-1.2,0.5c-0.3,0.3-0.5,0.7-0.5,1.2c0,0.5,0.2,0.9,0.5,1.2
		c0.3,0.3,0.7,0.5,1.2,0.5c0.5,0,0.9-0.2,1.2-0.5c0.3-0.3,0.5-0.7,0.5-1.2c0-0.5-0.2-0.9-0.5-1.2C20.1,17.7,19.7,17.5,19.2,17.5
		L19.2,17.5z M19.2,17.5"/>
	<path fill="#868686" d="M12.5,20.2c-0.5,0-1,0.2-1.4,0.6c-0.4,0.4-0.6,0.8-0.6,1.4c0,0.5,0.2,1,0.6,1.4c0.4,0.4,0.8,0.6,1.4,0.6
		c0.5,0,1-0.2,1.4-0.6c0.4-0.4,0.6-0.8,0.6-1.4c0-0.5-0.2-1-0.6-1.4C13.5,20.3,13,20.2,12.5,20.2L12.5,20.2z M12.5,20.2"/>
	<path fill="#868686" d="M12.5,0c-0.8,0-1.5,0.3-2,0.8c-0.6,0.6-0.8,1.2-0.8,2c0,0.8,0.3,1.5,0.8,2c0.6,0.6,1.2,0.8,2,0.8
		c0.8,0,1.5-0.3,2-0.8c0.6-0.6,0.8-1.2,0.8-2c0-0.8-0.3-1.5-0.8-2C14,0.3,13.3,0,12.5,0L12.5,0z M12.5,0"/>
</g>
</svg>
