<?xml version="1.0" standalone="no"?>
<!DOCTYPE svg PUBLIC "-//W3C//DTD SVG 1.1//EN" "http://www.w3.org/Graphics/SVG/1.1/DTD/svg11.dtd" >
<svg xmlns="http://www.w3.org/2000/svg">
<metadata>Generated by IcoMoon</metadata>
<defs>
<font id="dashboard-v16" horiz-adv-x="1024">
<font-face units-per-em="1024" ascent="960" descent="-64" />
<missing-glyph horiz-adv-x="1024" />
<glyph unicode="&#x20;" horiz-adv-x="512" d="" />
<glyph unicode="&#xe900;" glyph-name="group-line" d="M761.542 210.879v-119.928h-676.37v394.032h474.523q-1.453 16.536-1.453 33.58c0.001 18.194 1.258 36.094 3.69 53.619l-0.23-2.027h-48.617v90.107c0 43.935-34.595 79.706-76.915 79.706h-359.253c-42.321-0.092-76.915-35.886-76.915-79.706v-570.35c0.052-46.445 37.689-84.082 84.129-84.134h678.451c46.445 0.052 84.082 37.689 84.134 84.129v115.851c-9.023-1.35-19.436-2.122-30.029-2.122-19.61 0-38.603 2.643-56.641 7.592l1.499-0.351zM85.172 654.704h342.74v-84.549h-342.74zM1024 566.788h-140.039v140.339h-85.772v-140.339h-140.039v-85.172h140.039v-140.316h85.772v140.316h140.039v85.172z" />
<glyph unicode="&#xe901;" glyph-name="text" d="M920.32 700.617l-192 216.32c-17.298 19.878-42.24 32.719-70.198 33.913l-0.202 0.007h-481.28c-56.394-2.429-101.193-48.737-101.193-105.508 0-1.383 0.027-2.759 0.079-4.129l-0.006 0.197v-805.12c-0.047-1.173-0.073-2.549-0.073-3.932 0-56.771 44.799-103.079 100.975-105.501l0.219-0.007h670.72c56.394 2.429 101.193 48.737 101.193 105.508 0 1.383-0.027 2.759-0.079 4.129l0.006-0.197v588.8c0 0.087 0 0.19 0 0.293 0 28.855-10.668 55.218-28.275 75.361l0.115-0.134zM851.84 36.297c0.036-0.413 0.057-0.893 0.057-1.378 0-4.744-1.985-9.024-5.17-12.056l-0.007-0.007h-669.44c-3.217 2.83-5.236 6.955-5.236 11.552 0 0.666 0.042 1.321 0.124 1.964l-0.008-0.076v805.12c-0.041 0.454-0.064 0.982-0.064 1.515 0 4.588 1.724 8.773 4.559 11.943l-0.015-0.017h482.56l188.8-217.6c2.412-3.025 3.87-6.904 3.87-11.123 0-0.365-0.011-0.727-0.032-1.086l0.002 0.049zM339.84 582.857h256c24.742 0 44.8 20.058 44.8 44.8s-20.058 44.8-44.8 44.8h-256c-24.742 0-44.8-20.058-44.8-44.8s20.058-44.8 44.8-44.8v0zM684.16 483.657h-344.32c-24.742 0-44.8-20.058-44.8-44.8s20.058-44.8 44.8-44.8h344.32c24.742 0 44.8 20.058 44.8 44.8s-20.058 44.8-44.8 44.8v0zM684.16 294.857h-344.32c-24.742 0-44.8-20.058-44.8-44.8s20.058-44.8 44.8-44.8h344.32c24.742 0 44.8 20.058 44.8 44.8s-20.058 44.8-44.8 44.8v0z" />
<glyph unicode="&#xe902;" glyph-name="link" d="M960 880.457c-89.6 89.6-230.4 89.6-320 0l-140.8-140.8c-44.8-44.8-64-102.4-64-160 0-19.2 0-38.4 6.4-51.2l96 96c6.4 19.2 12.8 32 32 44.8l134.4 140.8c51.2 51.2 134.4 51.2 185.6 0s51.2-134.4 0-185.6l-140.8-140.8c-19.2-19.2-38.4-25.6-64-32l-83.2-89.6c19.2-6.4 38.4-6.4 57.6-6.4 57.6 0 115.2 19.2 160 64l140.8 134.4c83.2 89.6 83.2 236.8 0 326.4zM492.8 253.257c-6.4-19.2-19.2-44.8-32-57.6l-140.8-140.8c-51.2-51.2-134.4-51.2-185.6 0-25.6 25.6-38.4 57.6-38.4 96 0 32 12.8 70.4 38.4 96l134.4 134.4c19.2 12.8 32 19.2 51.2 25.6l96 96c-76.8 19.2-153.6 0-211.2-57.6l-140.8-134.4c-44.8-44.8-64-102.4-64-160 0-64 25.6-115.2 64-160 44.8-44.8 102.4-64 160-64s115.2 19.2 160 64l134.4 134.4c57.6 57.6 76.8 147.2 57.6 217.6l-83.2-89.6zM288 214.857c6.4-6.4 19.2-12.8 32-12.8s25.6 6.4 32 12.8l364.8 364.8c19.2 19.2 19.2 51.2 0 70.4s-51.2 19.2-70.4 0l-108.8-121.6-70.4-70.4-57.6-51.2-128-128c-12.8-19.2-12.8-44.8 6.4-64z" />
<glyph unicode="&#xe903;" glyph-name="flow" d="M1011.84 676.937l-140.8 140.8c-8.679 8.689-20.67 14.068-33.918 14.080h-314.242v38.4c0 26.51-21.49 48-48 48s-48-21.49-48-48v0-159.36h-256c-0.019 0-0.041 0-0.063 0-14.194 0-26.95-6.161-35.738-15.955l-0.040-0.045-122.88-120.96c-9.67-8.813-15.715-21.461-15.715-35.52s6.045-26.707 15.677-35.486l0.038-0.034 115.84-112c8.418-9.402 20.413-15.451 33.826-15.997l0.094-0.003h264.96v-335.36h-151.68c-26.51 0-48-21.49-48-48s21.49-48 48-48v0h384c26.51 0 48 21.49 48 48s-21.49 48-48 48v0h-136.32v423.68h320c0.305-0.007 0.665-0.012 1.025-0.012 12.932 0 24.603 5.403 32.878 14.074l0.017 0.018 132.48 131.84c9.464 8.793 15.366 21.307 15.366 35.2 0 12.62-4.87 24.102-12.833 32.67l0.027-0.030zM179.84 472.777l-67.84 64 80 78.080h234.88v-142.080zM825.6 559.177h-302.72v176.64h294.4l92.8-92.8z" />
<glyph unicode="&#xe904;" glyph-name="video" d="M512 950.857c-281.6 0-512-230.4-512-512s230.4-512 512-512 512 230.4 512 512-230.4 512-512 512zM512 22.857c-230.4 0-416 185.6-416 416s185.6 416 416 416 416-185.6 416-416c0-230.4-185.6-416-416-416zM473.6 662.857c-19.2 12.8-44.8 12.8-57.6 0-12.8-6.4-19.2-25.6-19.2-38.4v-364.8c0-25.6 19.2-44.8 44.8-51.2 0 0 0 0 0 0 12.8 0 19.2 6.4 32 12.8l230.4 185.6c12.8 6.4 19.2 25.6 19.2 38.4s-6.4 25.6-19.2 38.4l-230.4 179.2zM492.8 362.057v166.4l102.4-83.2-102.4-83.2z" />
<glyph unicode="&#xe905;" glyph-name="arrow-left" d="M0 438.857c0-282.77 229.23-512 512-512s512 229.23 512 512c0 282.77-229.23 512-512 512v0c-282.77 0-512-229.23-512-512v0zM357.935 438.857l234.124 234.124 49.338-49.338-184.785-184.785 184.785-184.785-49.338-49.338z" />
<glyph unicode="&#xe906;" glyph-name="arrow-right" d="M512 950.857c-282.77 0-512-229.23-512-512s229.23-512 512-512c282.77 0 512 229.23 512 512v0c0 282.77-229.23 512-512 512v0zM431.942 204.733l-49.338 49.338 184.785 184.785-184.785 184.785 49.338 49.338 234.124-234.124z" />
<glyph unicode="&#xe907;" glyph-name="menu-beacon" d="M424.96 454.217c-20.48 0-35.84-15.36-35.84-35.84s15.36-35.84 35.84-35.84h337.92c20.48 0 35.84 15.36 35.84 35.84s-15.36 35.84-35.84 35.84h-337.92zM225.28 469.577c-30.72 0-51.2-25.6-51.2-51.2 0-30.72 25.6-51.2 51.2-51.2h51.2c30.72 0 51.2 25.6 51.2 51.2 0 30.72-25.6 51.2-51.2 51.2h-51.2zM896 449.097v-174.080c0-5.12-5.12-10.24-10.24-10.24h-793.6c-5.12 0-10.24 5.12-10.24 10.24v286.72c0 5.12 5.12 10.24 10.24 10.24h686.080c0 10.24-5.12 20.48-5.12 30.72 0 15.36 5.12 35.84 10.24 51.2h-691.2c-51.2 0-92.16-40.96-92.16-92.16v-281.6c0-51.2 40.96-92.16 92.16-92.16h788.48c51.2 0 92.16 40.96 92.16 92.16v174.080c-15.36-5.12-30.72-10.24-46.080-10.24-10.24 5.12-20.48 5.12-30.72 5.12zM926.72 694.857c-51.2 0-97.28-40.96-97.28-97.28 0-51.2 40.96-97.28 97.28-97.28 51.2 0 97.28 40.96 97.28 97.28 0 51.2-40.96 97.28-97.28 97.28z" />
<glyph unicode="&#xe908;" glyph-name="analytics-beacon" d="M904.533 450.804v-160.427c0-11.947-10.24-22.187-22.187-22.187h-795.307c-11.947 0-22.187 10.24-22.187 22.187v249.173c0 11.947 10.24 22.187 22.187 22.187h711.68c0 5.12 0 8.533 0 13.653 0 6.827 0 13.653 1.707 20.48h-713.387c-30.72 0-56.32-25.6-56.32-56.32v-249.173c0-30.72 25.6-56.32 56.32-56.32h795.307c30.72 0 56.32 25.6 56.32 56.32v160.427c-5.12 0-11.947-1.707-17.067-1.707-6.827 0-11.947 1.707-17.067 1.707zM191.147 447.39c-17.067 0-32.427-13.653-32.427-32.427v-6.827c0-17.067 13.653-32.427 32.427-32.427h30.72c17.067 0 32.427 13.653 32.427 32.427v6.827c0 17.067-13.653 32.427-32.427 32.427h-30.72zM337.92 437.15c-11.947 0-22.187-10.24-22.187-22.187v-6.827c0-11.947 10.24-22.187 22.187-22.187h452.267c11.947 0 22.187 10.24 22.187 22.187v6.827c0 11.947-10.24 22.187-22.187 22.187h-452.267zM918.187 643.657c-32.427 0-59.733-20.48-71.68-49.493-3.413-8.533-5.12-17.067-5.12-27.307 0-1.707 0-5.12 0-6.827 3.413-34.133 29.013-61.44 63.147-68.267 5.12 0 8.533-1.707 13.653-1.707 6.827 0 13.653 1.707 20.48 3.413 32.427 8.533 56.32 37.547 56.32 73.387-1.707 42.667-35.84 76.8-76.8 76.8z" />
<glyph unicode="&#xe909;" glyph-name="analytics-tasklist" d="M814.592 883.956h-113.664c-8.257 38.447-41.935 66.855-82.256 66.901h-245.082c-40.326-0.046-74.005-28.454-82.162-66.348l-0.1-0.553h-113.664c-0.52 0.009-1.133 0.015-1.747 0.015-55.539 0-100.751-44.215-102.356-99.366l-0.003-0.148v-758.101c1.608-55.298 46.82-99.514 102.359-99.514 0.614 0 1.228 0.005 1.839 0.016l-0.092-0.001h636.928c0.52-0.009 1.133-0.015 1.747-0.015 55.539 0 100.751 44.215 102.356 99.366l0.003 0.148v758.101c-1.608 55.298-46.82 99.514-102.359 99.514-0.614 0-1.228-0.005-1.839-0.016l0.092 0.001zM373.589 916.724h245.077c26.24-1.585 46.92-23.252 46.92-49.749s-20.68-48.165-46.781-49.743l-0.139-0.007h-245.077c-0.871-0.054-1.89-0.085-2.915-0.085-27.523 0-49.835 22.312-49.835 49.835s22.312 49.835 49.835 49.835c1.026 0 2.044-0.031 3.054-0.092l-0.139 0.007zM884.395 26.356c-1.588-36.442-31.517-65.384-68.206-65.384-0.562 0-1.121 0.007-1.68 0.020l0.083-0.002h-636.928c-0.529-0.015-1.151-0.023-1.775-0.023-36.63 0-66.522 28.85-68.193 65.067l-0.006 0.15v758.272c1.676 36.368 31.568 65.218 68.199 65.218 0.624 0 1.246-0.008 1.866-0.025l-0.091 0.002h113.664c8.257-38.447 41.935-66.855 82.256-66.901h245.082c40.302 0.114 73.945 28.489 82.16 66.345l0.101 0.556h113.664c0.478 0.012 1.040 0.019 1.604 0.019 36.629 0 66.52-28.848 68.193-65.063l0.006-0.15zM391.168 429.47l-116.224-82.091-25.259 30.891c-3.169 3.818-7.916 6.231-13.227 6.231-9.474 0-17.154-7.68-17.154-17.154 0-4.163 1.483-7.98 3.95-10.951l-0.023 0.028 35.499-43.008c3.131-3.838 7.847-6.279 13.135-6.315h0.006c3.722 0.025 7.156 1.237 9.947 3.276l-0.048-0.034 129.195 91.136c4.405 3.144 7.243 8.238 7.243 13.995 0 9.467-7.675 17.142-17.142 17.142-3.71 0-7.145-1.179-9.951-3.182l0.052 0.035zM391.168 246.516l-116.224-82.091-25.259 30.891c-3.169 3.818-7.916 6.231-13.227 6.231-9.474 0-17.154-7.68-17.154-17.154 0-4.163 1.483-7.98 3.95-10.951l-0.023 0.028 35.499-43.008c3.131-3.838 7.847-6.279 13.135-6.315h0.006c3.722 0.025 7.156 1.237 9.947 3.276l-0.048-0.034 129.195 91.136c4.405 3.144 7.243 8.238 7.243 13.995 0 9.467-7.675 17.142-17.142 17.142-3.71 0-7.145-1.179-9.951-3.182l0.052 0.035zM752.811 411.892h-254.976c-9.426 0-17.067-7.641-17.067-17.067s7.641-17.067 17.067-17.067v0h254.976c9.426 0 17.067 7.641 17.067 17.067s-7.641 17.067-17.067 17.067v0zM391.168 612.425l-116.224-81.92-25.259 30.72c-3.154 3.843-7.904 6.276-13.222 6.276-4.131 0-7.918-1.467-10.871-3.909l0.029 0.023c-3.892-3.154-6.36-7.934-6.36-13.291 0-4.177 1.501-8.004 3.992-10.97l-0.021 0.026 35.499-43.008c3.152-3.766 7.855-6.144 13.114-6.144 0.010 0 0.019 0 0.029 0h-0.001c0.039 0 0.084 0 0.13 0 3.657 0 7.045 1.15 9.823 3.109l-0.054-0.036 129.195 91.136c4.405 3.144 7.243 8.238 7.243 13.995 0 9.467-7.675 17.142-17.142 17.142-3.71 0-7.145-1.179-9.951-3.182l0.052 0.035zM752.811 604.916h-254.976c-9.426 0-17.067-7.641-17.067-17.067s7.641-17.067 17.067-17.067v0h254.976c9.426 0 17.067 7.641 17.067 17.067s-7.641 17.067-17.067 17.067v0zM752.811 219.038h-254.976c-9.426 0-17.067-7.641-17.067-17.067s7.641-17.067 17.067-17.067v0h254.976c9.426 0 17.067 7.641 17.067 17.067s-7.641 17.067-17.067 17.067v0z" />
<glyph unicode="&#xe90a;" glyph-name="analytics-selfhelp" d="M1024 438.857c0 0.008 0 0.017 0 0.026 0 14.661-11.554 26.623-26.053 27.278l-0.059 0.002c51.2 214.699-43.861 337.408-87.723 380.416-132.779 130.219-322.901 100.523-373.76 89.6-4.746 8.474-13.667 14.108-23.905 14.108-11.174 0-20.78-6.711-25.008-16.322l-0.069-0.175c-34.133 8.533-240.469 51.2-381.611-87.893-43.861-42.496-139.947-165.717-87.211-381.44-10.093-4.161-17.068-13.923-17.068-25.315 0-0.1 0.001-0.201 0.002-0.301v0.015c0-0.042 0-0.092 0-0.143 0-9.074 4.482-17.101 11.352-21.988l0.083-0.056c-9.899-39.083-48.981-240.811 87.381-379.904 65.861-63.441 155.574-102.521 254.414-102.521 3.318 0 6.626 0.044 9.924 0.132l-0.487-0.010c43.155 0.278 84.878 5.864 124.718 16.135l-3.544-0.775c2.474-12.841 13.623-22.409 27.006-22.409 12.954 0 23.814 8.964 26.716 21.027l0.038 0.187c34.208-8.648 73.536-13.736 114.010-13.994l0.166-0.001c2.593-0.066 5.647-0.104 8.709-0.104 98.635 0 188.142 39.081 253.88 102.604l-0.104-0.1c132.267 134.997 99.499 328.875 89.088 375.467 11.181 3.651 19.116 13.986 19.116 26.174 0 0.098-0.001 0.196-0.002 0.294v-0.015zM892.416 828.318c37.376-36.693 114.859-136.533 89.771-308.053-2.858 20.826-6.975 39.289-12.447 57.159l0.671-2.546c-2.242 6.989-8.683 11.958-16.284 11.958-1.49 0-2.936-0.191-4.314-0.55l0.119 0.026-16.043-4.096c-46.131 133.277-149.177 236.323-279.285 281.496l-3.168 0.957 4.096 16.043c0.308 1.212 0.484 2.604 0.484 4.037 0 7.587-4.951 14.018-11.798 16.238l-0.121 0.034c-21.858 6.72-47.594 11.898-74.076 14.54l-1.7 0.137c69.291 9.728 218.624 16.043 324.096-87.381zM954.539 437.15c0-2.219 0-6.656 0-12.8s0-8.021 0-12.8c-1.62-30.433-5.58-58.921-11.741-86.578l0.648 3.463-32.768 8.021-133.461 34.133-22.187 5.461 2.901 18.091c2.2 13.645 3.456 29.374 3.456 45.397s-1.257 31.753-3.677 47.096l0.221-1.698-2.901 18.091 22.187 5.461 165.035 42.155c5.514-24.195 9.473-52.683 11.037-81.806l0.056-1.308c0-4.779 0-9.045 0-12.8s0-10.581 0-12.8c-0.652-0.304-1.095-0.953-1.095-1.707s0.444-1.403 1.084-1.702l0.012-0.005zM238.933 507.124l22.187-5.461-2.901-18.091c-2.2-13.645-3.456-29.374-3.456-45.397s1.257-31.753 3.677-47.096l-0.221 1.698 2.901-18.091-22.187-4.096-165.035-42.155c-5.525 24.156-9.485 52.585-11.038 81.652l-0.055 1.292c0 4.779 0 9.045 0 12.8s0 10.411 0 12.8v3.755c0 2.389 0 6.827 0 12.8s0 8.021 0 12.8c1.608 30.359 5.568 58.788 11.739 86.382l-0.646-3.438 31.573-8.021zM115.371 573.854c42.763 121.151 136.519 214.851 254.792 256.638l2.914 0.898 34.133-133.973c-72.179-28.895-128.289-85.005-156.52-155.312l-0.664-1.872zM249.344 336.457c28.949-72.145 85.039-128.235 155.31-156.518l1.874-0.666-34.133-133.973c-121.22 42.72-214.986 136.486-256.809 254.792l-0.898 2.915zM282.453 344.82h1.877c7.516 1.894 12.99 8.594 12.99 16.573 0 0.897-0.069 1.778-0.203 2.638l0.012-0.096-5.291 34.133c-1.955 12.055-3.072 25.95-3.072 40.107s1.117 28.052 3.268 41.603l-0.196-1.497 5.291 34.133c0.121 0.764 0.19 1.645 0.19 2.542 0 7.978-5.475 14.678-12.872 16.547l-0.118 0.025h-1.877c25.451 60.106 72.331 106.986 130.829 131.831l1.608 0.607v-1.877c1.899-7.509 8.596-12.978 16.57-12.978 0.175 0 0.349 0.003 0.522 0.008l-0.025-0.001h2.56l34.133 5.291c12.055 1.955 25.95 3.072 40.107 3.072s28.052-1.117 41.603-3.268l-1.497 0.196 34.133-5.291c0.764-0.121 1.645-0.19 2.542-0.19 7.978 0 14.678 5.475 16.547 12.872l0.025 0.118v1.877c59.721-25.437 106.317-72.034 131.146-130.152l0.609-1.603h-1.877c-7.516-1.894-12.99-8.594-12.99-16.573 0-0.897 0.069-1.778 0.203-2.638l-0.012 0.096 5.291-34.133c1.955-12.055 3.072-25.95 3.072-40.107s-1.117-28.052-3.268-41.603l0.196 1.497-5.291-34.133c-0.121-0.764-0.19-1.645-0.19-2.542 0-7.978 5.475-14.678 12.872-16.547l0.118-0.025h1.877c-25.451-60.106-72.331-106.986-130.829-131.831l-1.608-0.607v2.048c-1.953 7.433-8.613 12.826-16.531 12.826-0.912 0-1.807-0.071-2.68-0.209l0.097 0.013-34.133-5.291c-12.055-1.955-25.95-3.072-40.107-3.072s-28.052 1.117-41.603 3.268l1.497-0.196-34.133 5.291c-0.776 0.125-1.671 0.197-2.583 0.197-7.919 0-14.578-5.393-16.505-12.707l-0.027-0.119v-2.048c-60.093 25.564-106.924 72.562-131.662 131.165l-0.605 1.613zM609.621 697.588l34.133 133.973c121.22-42.72 214.986-136.486 256.809-254.792l0.898-2.915-133.973-34.133c-28.948 72.539-85.328 128.919-155.989 157.203l-1.878 0.663zM766.805 336.457l133.973-34.133c-43.147-120.524-136.811-213.629-254.79-255.107l-2.917-0.893-34.133 133.973c72.215 28.627 128.491 84.348 157.191 154.299l0.676 1.861zM497.664 884.98h42.155c28.95-1.75 55.887-5.64 82.052-11.565l-3.375 0.643-8.021-31.573-34.133-133.461-5.461-22.187-18.091 2.901c-13.645 2.2-29.374 3.456-45.397 3.456s-31.753-1.257-47.096-3.677l1.698 0.221-18.091-2.901-5.461 22.187-34.133 133.461-6.656 30.549c25.536 5.87 55.45 9.961 86.059 11.392l1.152 0.043zM123.904 828.489c105.301 102.4 254.805 96.939 324.267 87.211-28.182-2.779-53.918-7.957-78.661-15.425l2.885 0.748c-6.968-2.254-11.919-8.685-11.919-16.272 0-1.433 0.177-2.825 0.509-4.155l-0.025 0.118 4.096-16.043c-133.417-46.044-236.595-149.11-281.837-279.286l-0.958-3.167-16.043 4.096c-1.259 0.333-2.705 0.524-4.195 0.524-7.412 0-13.72-4.725-16.077-11.327l-0.037-0.119c-4.954-15.419-9.132-33.879-11.746-52.838l-0.2-1.776c-25.088 171.52 52.395 271.019 89.941 307.712zM118.443 54.686c-103.253 105.301-96.939 254.805-87.211 324.267 2.716-28.454 7.898-54.49 15.422-79.513l-0.745 2.884c2.22-6.908 8.542-11.839 16.030-11.947h0.013c0.64-0.080 1.382-0.125 2.133-0.125s1.493 0.045 2.221 0.134l-0.088-0.009 16.043 4.096c46.175-133.207 149.209-236.186 279.285-281.326l3.169-0.957-4.096-16.043c-0.308-1.212-0.484-2.604-0.484-4.037 0-7.587 4.951-14.018 11.798-16.238l0.121-0.034c15.708-5.077 34.46-9.317 53.731-11.925l1.736-0.192c-178.517-24.235-280.405 61.611-309.077 90.965zM528.043-6.924h-42.325c-31.762 1.474-61.675 5.564-90.668 12.088l3.457-0.654 8.021 31.573 34.133 133.461 5.461 22.187 18.091-2.901c13.645-2.2 29.374-3.456 45.397-3.456s31.753 1.257 47.096 3.677l-1.698-0.221 18.091 2.901 5.461-22.187 34.133-133.461 8.021-31.573c-22.802-5.295-49.74-9.186-77.277-10.855l-1.4-0.068zM898.389 54.516c-36.523-37.376-136.533-115.029-308.053-89.771 20.735 2.815 39.195 6.993 57.022 12.6l-2.408-0.653c6.968 2.254 11.919 8.685 11.919 16.272 0 1.433-0.177 2.825-0.509 4.155l0.025-0.118-4.949 15.189c133.442 46.303 236.54 149.681 281.503 280.134l0.951 3.172 16.043-4.096c0.64-0.080 1.382-0.125 2.133-0.125s1.493 0.045 2.221 0.134l-0.088-0.009c0.233-0.011 0.506-0.018 0.78-0.018 7.604 0 14.046 4.973 16.253 11.844l0.034 0.121c6.69 21.934 11.812 47.739 14.377 74.293l0.129 1.654c9.045-69.632 15.36-218.965-88.235-324.779z" />
<glyph unicode="&#xe90b;" glyph-name="analytics-popup" d="M974.336 787.529h-923.136c-28.277 0-51.2-22.923-51.2-51.2v0-642.048c0-28.277 22.923-51.2 51.2-51.2v0h923.136c28.277 0 51.2 22.923 51.2 51.2v0 642.56c-0.29 28.056-23.1 50.688-51.197 50.688-0.001 0-0.002 0-0.003 0v0zM991.403 94.281c0-9.426-7.641-17.067-17.067-17.067v0h-923.136c-9.426 0-17.067 7.641-17.067 17.067v0 490.837h955.733zM991.403 619.422h-955.733v117.419c0 9.426 7.641 17.067 17.067 17.067v0h921.6c9.426 0 17.067-7.641 17.067-17.067v0zM705.877 281.673h-385.877c-31.010 0-56.149-25.139-56.149-56.149v0-12.117c0.097-30.971 25.178-56.053 56.14-56.149h385.886c30.971 0.097 56.053 25.178 56.149 56.14v12.126c0 31.010-25.139 56.149-56.149 56.149v0zM727.723 213.406c0-12.065-9.78-21.845-21.845-21.845v0h-385.877c-12.065 0-21.845 9.78-21.845 21.845v0 12.117c0 0.051-0.001 0.111-0.001 0.171 0 12.065 9.78 21.845 21.845 21.845 0 0 0 0 0.001 0h385.877c0 0 0 0 0.001 0 12.065 0 21.845-9.78 21.845-21.845 0-0.060 0-0.12-0.001-0.18v0.009zM183.808 363.593h658.261c9.426 0 17.067 7.641 17.067 17.067s-7.641 17.067-17.067 17.067v0h-658.261c-9.426 0-17.067-7.641-17.067-17.067s7.641-17.067 17.067-17.067v0zM384.683 455.924h256c9.426 0 17.067 7.641 17.067 17.067s-7.641 17.067-17.067 17.067v0h-256c-9.426 0-17.067-7.641-17.067-17.067s7.641-17.067 17.067-17.067v0zM900.267 733.257c-25.753-0.097-46.592-20.996-46.592-46.762 0-25.826 20.936-46.763 46.763-46.763s46.762 20.936 46.763 46.762v0c0 0 0 0 0 0 0 25.826-20.936 46.763-46.763 46.763-0.060 0-0.12 0-0.18 0h0.009zM900.267 674.036c-6.974 0.001-12.628 5.655-12.628 12.629s5.654 12.629 12.629 12.629c6.975 0 12.629-5.654 12.629-12.629 0-0.060 0-0.12-0.001-0.18v0.009c0 0 0-0.001 0-0.001 0-6.881-5.578-12.459-12.459-12.459-0.060 0-0.12 0-0.18 0.001h0.009z" />
<glyph unicode="&#xe90c;" glyph-name="facebook" d="M593.067-73.143h-217.6v512h-110.933v174.933h110.933v106.667c0 145.067 59.733 230.4 234.667 230.4h145.067v-174.933h-89.6c-68.267 0-72.533-25.6-72.533-72.533v-89.6h166.4l-17.067-174.933h-145.067v-512z" />
<glyph unicode="&#xe90d;" glyph-name="google" d="M1002.667 532.724h-482.133v-196.267h277.333c-12.8-64-46.933-119.467-102.4-153.6-46.933-29.867-102.4-46.933-174.933-46.933-132.267 0-247.467 89.6-285.867 209.067-8.533 29.867-17.067 64-17.067 98.133s4.267 68.267 17.067 98.133c38.4 119.467 153.6 209.067 285.867 209.067 76.8 0 140.8-25.6 196.267-76.8l145.067 145.067c-89.6 81.067-204.8 132.267-341.333 132.267-200.533 0-371.2-115.2-456.533-281.6-34.133-68.267-55.467-149.333-55.467-230.4s21.333-162.133 55.467-230.4c85.333-166.4 256-281.6 456.533-281.6 136.533 0 256 46.933 337.067 123.733 98.133 89.6 153.6 221.867 153.6 375.467 4.267 38.4 0 72.533-8.533 106.667z" />
<glyph unicode="&#xe90e;" glyph-name="delete" d="M920.998 780.692h-209.92v30.72c0 76.8-62.344 139.144-139.144 139.144h-120.471c-76.8 0-139.144-62.344-139.144-139.144v-30.72h-209.318v-120.471h58.729l80.414-732.762h536.998l83.426 732.762h58.729v120.471zM433.092 811.412c0 9.939 8.433 18.673 18.673 18.673h120.471c9.939 0 18.673-8.433 18.673-18.673v-30.72h-157.515v30.72zM671.322 47.93h-321.355l-67.162 612.292h458.391l-69.873-612.292z" />
<glyph unicode="&#xe90f;" glyph-name="check_box_empty" d="M512 950.857c-283.927 0-512-228.073-512-512s228.073-512 512-512c283.927 0 512 228.073 512 512s-228.073 512-512 512zM512-26.598c-256 0-465.455 209.455-465.455 465.455s209.455 465.455 465.455 465.455c256 0 465.455-209.455 465.455-465.455s-209.455-465.455-465.455-465.455z" />
<glyph unicode="&#xe910;" glyph-name="add" d="M1024 438.857c0 282.77-229.23 512-512 512s-512-229.23-512-512c0-282.77 229.23-512 512-512v0c282.77 0 512 229.23 512 512v0zM450.56 131.657v245.76h-245.76v122.88h245.76v245.76h122.88v-245.76h245.76v-122.88h-245.76v-245.76z" />
<glyph unicode="&#xe911;" glyph-name="select-content" d="M0 716.361v-93.696h486.4c12.775 35.857 30.115 66.894 51.738 94.406l-0.538-0.71zM0 473.673v-93.696h497.664c-12.695 27.244-22.046 58.852-26.443 92.025l-0.181 1.671zM630.272 231.497h-630.272v-93.696h896v61.44c-28.9-9.197-62.141-14.497-96.619-14.497-62.443 0-120.826 17.384-170.572 47.578l1.463-0.824zM845.824 562.249v177.664h-93.696v-177.664h-177.664v-93.696h177.664v-178.176h93.696v178.176h178.176v93.696h-178.176z" />
<glyph unicode="&#xe912;" glyph-name="information" d="M512 950.857c-282.77 0-512-229.23-512-512s229.23-512 512-512c282.77 0 512 229.23 512 512v0c0 282.77-229.23 512-512 512v0zM512 22.857c-229.75 0-416 186.25-416 416s186.25 416 416 416c229.75 0 416-186.25 416-416v0c-0.364-229.604-186.396-415.636-415.965-416h-0.035zM512 771.657c-46.657 0-84.48-37.823-84.48-84.48s37.823-84.48 84.48-84.48v0c46.657 0 84.48 37.823 84.48 84.48s-37.823 84.48-84.48 84.48v0zM561.92 538.697h-99.84c-12.45-0.352-22.409-10.529-22.409-23.031 0-0.228 0.003-0.455 0.010-0.682l-0.001 0.033v-384c0-0.010 0-0.022 0-0.035 0-12.628 9.884-22.947 22.338-23.643l0.062-0.003h99.84c12.516 0.698 22.4 11.018 22.4 23.645 0 0.012 0 0.024 0 0.036v-0.002 384c0.006 0.193 0.009 0.421 0.009 0.649 0 12.503-9.959 22.68-22.377 23.031l-0.032 0.001z" />
<glyph unicode="&#xe913;" glyph-name="lock" d="M783.865 539.973v139.019c0 151.736-120.129 271.865-271.865 271.865s-271.741-120.129-271.741-271.865v-139.019c-56.916-63.213-94.819-151.736-94.819-246.555 0-202.232 164.329-366.684 366.684-366.684s366.684 164.329 366.684 366.684c-0.123 94.819-38.027 183.342-94.943 246.555v0zM341.374 678.992c0 94.819 75.806 170.626 170.626 170.626s170.749-75.806 170.749-170.626v-56.916c-50.62 25.31-107.413 44.2-170.626 44.2s-120.129-19.013-170.626-44.2v56.916zM512 27.973c-145.439 0-265.445 120.129-265.445 265.445 0 31.606 6.297 69.51 19.013 94.819 12.593 44.2 44.2 82.226 75.806 113.833 44.2 37.903 107.413 63.213 170.626 63.213s126.426-25.31 170.626-63.213c31.606-31.606 63.213-63.213 75.806-107.413 12.593-31.606 19.013-63.213 19.013-94.819 0.123-151.736-120.006-271.865-265.445-271.865v0zM512 381.941c-25.31 0-50.62-25.31-50.62-50.62v-101.116c0-25.31 25.31-50.62 50.62-50.62s50.62 25.31 50.62 50.62v101.116c0 25.31-25.31 50.62-50.62 50.62z" />
<glyph unicode="&#xe914;" glyph-name="play-circle-o" d="M512 912.457c260.267 0 473.6-213.333 473.6-473.6s-213.333-473.6-473.6-473.6-473.6 213.333-473.6 473.6 213.333 473.6 473.6 473.6zM512 950.857c-281.6 0-512-230.4-512-512s230.4-512 512-512c281.6 0 512 230.4 512 512s-230.4 512-512 512v0zM435.2 613.79v-315.733l226.133 153.6z" />
<glyph unicode="&#xe915;" glyph-name="cancel-circle" d="M512 950.857c-281.6 0-512-230.4-512-512s230.4-512 512-512 512 230.4 512 512-230.4 512-512 512zM748.8 291.657c25.6-25.6 25.6-64 0-89.6-12.8-12.8-25.6-19.2-44.8-19.2s-32 6.4-44.8 19.2l-147.2 147.2-147.2-147.2c-12.8-12.8-25.6-19.2-44.8-19.2s-32 6.4-44.8 19.2c-25.6 25.6-25.6 64 0 89.6l147.2 147.2-147.2 147.2c-25.6 25.6-25.6 64 0 89.6s64 25.6 89.6 0l147.2-147.2 147.2 147.2c25.6 25.6 64 25.6 89.6 0s25.6-64 0-89.6l-147.2-147.2 147.2-147.2z" />
<glyph unicode="&#xe916;" glyph-name="email" d="M835.744 720.457h-647.5c-42.521-0.047-76.978-34.503-77.025-77.019v-409.155c0.046-42.522 34.504-76.98 77.021-77.026h647.504c42.521 0.047 76.978 34.504 77.025 77.020v409.156c-0.047 42.52-34.504 76.977-77.020 77.024zM834.794 669.257l-322.8-220.249-322.775 220.249zM835.744 208.457h-647.5c-14.259 0.009-25.815 11.566-25.825 25.824v391.268l335.15-228.69c4.038-2.786 9.037-4.45 14.425-4.45s10.387 1.664 14.511 4.506l335.064 228.634v-391.266c-0.008-14.26-11.566-25.818-25.825-25.826z" />
<glyph unicode="&#xe917;" glyph-name="manage-tags" d="M858.795 950.857h-278.073c-0.057 0-0.124 0.001-0.191 0.001-8.624 0-16.437-3.477-22.112-9.105l-464.211-464.666c-18.29-18.285-29.603-43.547-29.603-71.452s11.313-53.168 29.602-71.452v0l65.081-62.805c5.824-5.824 13.869-9.426 22.756-9.426 17.773 0 32.181 14.408 32.181 32.181 0 8.887-3.602 16.932-9.426 22.756v0l-68.267 61.895c-6.946 6.923-11.244 16.499-11.244 27.079s4.298 20.156 11.243 27.078l455.112 455.112h264.875c0.136 0.002 0.297 0.003 0.458 0.003 20.862 0 37.774-16.912 37.774-37.774 0-0.161-0.001-0.322-0.003-0.482v0.024-263.054l-54.613-58.254c-5.824-5.824-9.426-13.869-9.426-22.756 0-17.773 14.408-32.181 32.181-32.181 8.887 0 16.932 3.602 22.756 9.426v0l64.626 67.356c5.566 5.612 9.028 13.317 9.102 21.831v278.087c0 55.549-45.031 100.58-100.58 100.58v0zM838.315 738.32c0 43.232-35.047 78.279-78.279 78.279s-78.279-35.047-78.279-78.279c0-43.232 35.047-78.279 78.279-78.279v0c43.232 0 78.279 35.047 78.279 78.279v0zM744.107 738.32c-0.017 0.272-0.026 0.59-0.026 0.91 0 8.797 7.132 15.929 15.929 15.929s15.929-7.132 15.929-15.929c0-8.788-7.117-15.914-15.901-15.929h-0.001c-0.008 0-0.017 0-0.026 0-8.477 0-15.408 6.622-15.901 14.975l-0.002 0.043zM852.423 299.138l-59.164 11.833c-3.539 10.087-7.073 18.353-11.063 26.35l0.596-1.319 33.223 50.062c3.999 5.993 6.382 13.36 6.382 21.285 0 10.711-4.353 20.406-11.387 27.411l-0.001 0.001-37.319 36.864c-6.863 6.318-16.062 10.191-26.165 10.191-7.123 0-13.797-1.925-19.528-5.284l0.182 0.099-50.062-33.223c-6.616 3.344-14.879 6.877-23.367 9.942l-1.665 0.525-15.929 58.709c-4.433 16.199-18.727 28.020-35.882 28.67l-0.071 0.002h-52.338c-18.573-0.064-34.058-13.206-37.73-30.696l-0.044-0.252-10.468-56.889c-10.186-3.617-18.449-7.149-26.464-11.107l1.433 0.64-50.062 33.223c-5.993 3.999-13.36 6.382-21.285 6.382-10.711 0-20.406-4.353-27.411-11.387l-36.865-36.865c-7.035-7.006-11.388-16.701-11.388-27.412 0-7.924 2.383-15.292 6.471-21.426l-0.089 0.142 33.223-50.062c-3.427-6.716-6.961-14.982-9.989-23.488l-0.479-1.543-59.164-11.833c-17.741-3.716-30.884-19.201-30.948-37.767v-51.89c0.064-18.573 13.206-34.058 30.696-37.73l0.252-0.044 59.164-11.833c3.551-10.103 7.085-18.367 11.070-26.367l-0.602 1.336-34.133-48.242c-3.999-5.993-6.382-13.36-6.382-21.285 0-10.711 4.353-20.406 11.387-27.411l36.865-36.865c6.957-7.167 16.68-11.614 27.443-11.614 7.732 0 14.928 2.296 20.944 6.242l-0.145-0.089 50.062 33.223c6.582-3.318 14.846-6.85 23.327-9.927l1.704-0.54 11.833-59.164c3.716-17.741 19.201-30.884 37.767-30.948h52.345c18.573 0.064 34.058 13.206 37.73 30.696l0.044 0.252 11.833 59.164c10.167 3.603 18.431 7.136 26.443 11.099l-1.412-0.632 52.338-33.223c5.762-3.665 12.782-5.841 20.31-5.841 9.675 0 18.51 3.594 25.243 9.519l-0.042-0.037 36.864 36.864c7.808 7.104 12.69 17.307 12.69 28.649 0 8.171-2.534 15.751-6.858 21.996l0.084-0.128-33.223 50.062c3.395 6.679 6.929 14.944 9.971 23.443l0.496 1.588 59.164 11.833c17.741 3.716 30.884 19.201 30.948 37.767v50.524c-0.109 18.699-13.468 34.246-31.157 37.734l-0.245 0.040zM769.593 199.924c-12.393-2.62-22.253-11.425-26.32-22.962l-0.076-0.249c-2.646-7.762-5.262-14.079-8.21-20.206l0.473 1.091c-2.254-4.534-3.574-9.874-3.574-15.523 0-7.267 2.184-14.024 5.931-19.651l-0.082 0.13 30.948-45.511-34.133-34.133-45.511 30.948c-5.497 3.666-12.254 5.849-19.521 5.849-5.649 0-10.989-1.319-15.73-3.666l0.207 0.093-19.115-7.737c-11.786-4.143-20.591-14.004-23.169-26.164l-0.041-0.232-10.923-54.613h-49.607l-10.923 53.248c-2.62 12.393-11.425 22.253-22.962 26.32l-0.249 0.076c-7.712 2.607-14.030 5.223-20.147 8.188l1.033-0.452c-4.534 2.254-9.874 3.574-15.523 3.574-7.267 0-14.024-2.184-19.651-5.931l0.13 0.082-45.511-30.948-34.133 34.133 30.948 45.511c3.666 5.497 5.849 12.254 5.849 19.521 0 5.649-1.319 10.989-3.666 15.73l0.093-0.207c-2.311 5.572-4.646 12.544-6.546 19.693l-0.281 1.242c-4.143 11.786-14.004 20.591-26.164 23.169l-0.232 0.041-54.613 10.923v48.242l52.338 8.647c13.725 2.159 24.712 11.928 28.607 24.78l0.065 0.251c1.845 8.192 3.879 15.041 6.305 21.701l-0.389-1.221c2.254 4.534 3.574 9.874 3.574 15.523 0 7.267-2.184 14.024-5.931 19.651l0.082-0.13-30.948 45.511 34.133 34.133 45.511-30.948c5.472-3.706 12.221-5.917 19.485-5.917 0.030 0 0.060 0 0.089 0h-0.005c5.64 0.048 10.957 1.387 15.683 3.735l-0.209-0.094c5.1 2.526 11.419 5.143 17.915 7.378l1.2 0.359c11.786 4.143 20.591 14.004 23.169 26.164l0.041 0.232 10.923 54.613h48.242l10.923-54.613c2.62-12.393 11.425-22.253 22.962-26.32l0.249-0.076c7.665-2.568 13.984-5.185 20.092-8.168l-0.977 0.431c4.517-2.254 9.834-3.593 15.458-3.641h0.016c0.025 0 0.055 0 0.085 0 7.264 0 14.013 2.21 19.609 5.995l-0.124-0.079 45.511 30.948 34.133-34.133-30.948-45.511c-3.666-5.497-5.849-12.254-5.849-19.521 0-5.649 1.319-10.989 3.666-15.73l-0.093 0.207c2.653-5.112 5.416-11.418 7.803-17.906l0.389-1.209c4.143-11.786 14.004-20.591 26.164-23.169l0.232-0.041 54.613-10.923v-48.242zM575.26 344.649c-60.324 0-109.227-48.902-109.227-109.227s48.902-109.227 109.227-109.227c60.324 0 109.227 48.902 109.227 109.227v0c-0.257 60.221-49.006 108.969-109.202 109.227h-0.025zM575.26 188.091c-25.135 0-45.511 20.376-45.511 45.511s20.376 45.511 45.511 45.511c25.135 0 45.511-20.376 45.511-45.511v0c0-25.135-20.376-45.511-45.511-45.511v0z" />
<glyph unicode="&#xe918;" glyph-name="cancel-new" d="M873.984 800.841c-92.659 92.686-220.681 150.016-362.093 150.016-282.77 0-512-229.23-512-512s229.23-512 512-512c141.412 0 269.434 57.329 362.092 150.014l0.002 0.002c92.621 92.649 149.907 220.626 149.907 361.984s-57.286 269.336-149.908 361.986l0.002-0.002zM685.056 179.273l-173.056 173.056-173.056-173.056-86.528 86.528 173.056 173.056-173.056 173.056 86.528 86.528 173.056-173.056 173.056 173.056 86.528-86.528-173.056-173.056 173.056-173.056z" />
<glyph unicode="&#xe919;" glyph-name="search-scope" d="M404.48 290.377h-404.48v-97.28h501.76c-40.96 25.6-71.68 61.44-97.28 97.28zM363.52 469.577c0 10.24 0 15.36 0 25.6h-363.52v-97.28h373.76c-5.12 20.48-10.24 46.080-10.24 71.68zM450.56 699.977h-450.56v-97.28h384c15.36 35.84 40.96 71.68 66.56 97.28zM901.12 356.937c20.48 35.84 35.84 76.8 35.84 117.76 0 128-107.52 235.52-235.52 235.52s-235.52-107.52-235.52-235.52c0-128 107.52-235.52 235.52-235.52 51.2 0 97.28 15.36 138.24 46.080l117.76-117.76 66.56 66.56-122.88 122.88zM701.44 331.337c-76.8 0-143.36 61.44-143.36 143.36 0 76.8 61.44 143.36 143.36 143.36 76.8 0 143.36-61.44 143.36-143.36 0-76.8-66.56-143.36-143.36-143.36z" />
<glyph unicode="&#xe91a;" glyph-name="video-demos" d="M916.48 874.057h-808.96c-61.44 0-107.52-46.080-107.52-102.4v-527.36c0-61.44 46.080-107.52 107.52-112.64h808.96c61.44 0 107.52 46.080 107.52 107.52v532.48c0 56.32-46.080 102.4-107.52 102.4zM942.080 239.177c0-15.36-10.24-25.6-25.6-25.6h-808.96c-15.36 0-25.6 10.24-25.6 25.6v532.48c0 15.36 10.24 25.6 25.6 25.6h808.96c15.36 0 25.6-10.24 25.6-25.6v-532.48zM655.36 577.097v0l-168.96 97.28c-25.6 15.36-66.56 5.12-81.92-25.6-5.12-5.12-10.24-20.48-10.24-30.72v-194.56c0-35.84 30.72-61.44 61.44-61.44 10.24 0 20.48 5.12 30.72 10.24l163.84 102.4c30.72 15.36 40.96 56.32 20.48 87.040 0 5.12-10.24 10.24-15.36 15.36zM481.28 464.457v117.76l102.4-56.32-102.4-61.44zM778.24 85.577c0 0 0 0 0 0h-542.72c-25.6 0-40.96-20.48-40.96-40.96 0-25.6 20.48-40.96 40.96-40.96 0 0 0 0 0 0h537.6c25.6 0 40.96 20.48 40.96 40.96s-15.36 40.96-35.84 40.96z" />
<glyph unicode="&#xe91b;" glyph-name="recent" d="M512 950.857c-284.939 0-512-227.061-512-512s227.061-512 512-512 512 227.061 512 512c0 280.487-231.513 512-512 512zM512 11.448c-235.965 0-427.409 191.443-427.409 427.409s191.443 427.409 427.409 427.409 427.409-191.443 427.409-427.409c0-235.965-191.443-427.409-427.409-427.409zM552.070 434.405v284.939c8.904 22.261-4.452 48.974-31.165 57.878s-48.974-4.452-57.878-31.165c-4.452-8.904-4.452-17.809 0-26.713v-298.296c0-8.904 4.452-22.261 13.357-31.165l146.922-151.374c22.261-13.357 48.974-4.452 62.33 17.809 8.904 13.357 8.904 26.713 0 40.070l-133.565 138.017z" />
<glyph unicode="&#xe91c;" glyph-name="select-library" d="M179.2 921.673v-786.432h844.8v786.432zM933.888 225.353h-665.6v606.208h665.6zM90.112 697.417h-90.112v-741.376h799.744v90.112h-709.632v651.264zM556.544 339.529h90.112v133.12h133.632v90.112h-133.632v133.632h-90.112v-133.632h-133.12v-90.112h133.12v-133.12z" />
<glyph unicode="&#xe91d;" glyph-name="select-tags" d="M520.704 791.625l-54.272 54.272-462.848-462.848 345.088-344.576 54.272 54.272-290.816 290.304 408.576 408.576zM1015.296 825.417l-346.624 5.12-446.976-446.976 351.744-354.304 446.976 446.976zM573.44 140.361l-243.2 243.2 369.664 369.664 239.616-3.584 3.584-240.128zM741.376 678.473c-16.136-16.201-26.112-38.548-26.112-63.225 0-49.485 40.115-89.6 89.6-89.6s89.6 40.115 89.6 89.6c0 24.677-9.976 47.024-26.115 63.228l0.003-0.003c-16.494 15.698-38.863 25.356-63.488 25.356s-46.994-9.658-63.526-25.392l0.038 0.036zM824.832 595.017v0c-5.207-4.894-12.236-7.901-19.968-7.901s-14.761 3.007-19.983 7.915l0.015-0.014c-5.063 5.090-8.192 12.108-8.192 19.856 0 15.552 12.608 28.16 28.16 28.16s28.16-12.608 28.16-28.16c0-7.748-3.129-14.766-8.193-19.857l0.001 0.001z" />
<glyph unicode="&#xe91e;" glyph-name="visibility" d="M1003.52 464.457c-122.88 174.080-302.080 271.36-491.52 271.36s-368.64-97.28-491.52-271.36l-20.48-25.6 20.48-25.6c122.88-174.080 302.080-271.36 491.52-271.36s368.64 97.28 491.52 271.36l20.48 25.6-20.48 25.6zM512 234.057c-148.48 0-291.84 71.68-394.24 204.8 102.4 128 245.76 204.8 394.24 204.8s291.84-71.68 394.24-204.8c-102.4-128-245.76-204.8-394.24-204.8zM588.8 449.097c-30.72 0-51.2 25.6-51.2 51.2 0 20.48 15.36 40.96 35.84 51.2-15.36 5.12-35.84 10.24-51.2 10.24-71.68 0-128-56.32-128-128s56.32-128 128-128c71.68 0 128 56.32 128 128 0 15.36-5.12 30.72-10.24 40.96-10.24-10.24-30.72-25.6-51.2-25.6z" />
<glyph unicode="&#xe91f;" glyph-name="users" d="M414.72 403.017c102.4 56.32 138.24 179.2 81.92 281.6s-179.2 138.24-281.6 81.92c-97.28-51.2-133.12-179.2-76.8-276.48 20.48-35.84 46.080-61.44 81.92-81.92-133.12-46.080-220.16-168.96-220.16-307.2v-46.080h640v46.080c0 138.24-92.16 261.12-225.28 302.080zM199.68 587.337c0 66.56 51.2 117.76 117.76 117.76s117.76-51.2 117.76-117.76-51.2-117.76-117.76-117.76-117.76 51.2-117.76 117.76zM97.28 147.017c25.6 122.88 143.36 204.8 266.24 179.2 92.16-15.36 163.84-87.040 179.2-179.2h-445.44zM860.16 423.497c81.92 56.32 97.28 163.84 46.080 245.76-56.32 81.92-163.84 97.28-245.76 46.080-81.92-56.32-97.28-163.84-46.080-245.76 10.24-15.36 25.6-30.72 46.080-46.080-25.6-10.24-46.080-25.6-66.56-40.96l61.44-66.56c30.72 25.6 66.56 40.96 107.52 35.84 81.92 0 148.48-56.32 168.96-133.12h-215.040v-87.040h307.2v46.080c0 107.52-66.56 204.8-163.84 245.76zM757.76 479.817c-46.080 0-87.040 40.96-87.040 87.040s40.96 87.040 87.040 87.040v0c46.080 0 87.040-40.96 87.040-87.040s-35.84-87.040-87.040-87.040z" />
<glyph unicode="&#xe920;" glyph-name="widget" horiz-adv-x="975" d="M872.838 643.657h-770.438c-58.514 0-102.4-48.762-102.4-102.4v-502.248c0-58.514 43.886-102.4 102.4-102.4h770.438c58.514 0 102.4 43.886 102.4 102.4v502.248c0 53.638-43.886 102.4-102.4 102.4zM726.552 580.267c24.381 0 39.010-19.505 39.010-39.010s-19.505-39.010-39.010-39.010-39.010 19.505-39.010 39.010 14.629 39.010 39.010 39.010zM590.019 580.267c24.381 0 39.010-19.505 39.010-39.010s-19.505-39.010-39.010-39.010c-24.381 0-39.010 19.505-39.010 39.010s14.629 39.010 39.010 39.010zM897.219 39.009c0-14.629-9.752-24.381-24.381-24.381h-770.438c-14.629 0-24.381 9.752-24.381 24.381v404.724h814.324v-404.724zM863.086 502.247c-24.381 0-39.010 19.505-39.010 39.010s19.505 39.010 39.010 39.010c24.381 0 39.010-19.505 39.010-39.010s-14.629-39.010-39.010-39.010zM165.79 697.295c0 14.629 14.629 29.257 29.257 29.257h585.143c14.629 0 29.257-14.629 29.257-29.257v-14.629h68.267v14.629c0 53.638-43.886 97.524-97.524 97.524h-585.143c-53.638 0-97.524-43.886-97.524-97.524v-14.629h68.267v14.629zM273.067 853.333c0 19.505 14.629 34.133 34.133 34.133h365.714c19.505 0 34.133-14.629 34.133-34.133v-19.505h53.638v19.505c0 48.762-39.010 87.771-87.771 87.771h-365.714c-53.638 0-92.648-39.010-92.648-87.771v-19.505h53.638v19.505z" />
<glyph unicode="&#xe921;" glyph-name="play-circle" d="M1024 438.857c0-282.77-229.23-512-512-512s-512 229.23-512 512c0 282.77 229.23 512 512 512s512-229.23 512-512zM439.467 596.724v-315.733l226.133 153.6z" />
<glyph unicode="&#xe922;" glyph-name="tags" d="M993.28 459.337l-424.96 424.96c-20.48 20.48-46.080 30.72-76.8 30.72h-276.48c-25.6 10.24-46.080 5.12-66.56-5.12h-10.24l-5.12-5.12c-20.48-10.24-40.96-30.72-46.080-56.32l-5.12-5.12v-5.12l-76.8-271.36c-10.24-25.6-5.12-56.32 10.24-81.92l291.84-486.4c20.48-30.72 56.32-51.2 92.16-51.2 20.48 0 40.96 5.12 56.32 15.36l87.040 56.32c40.96-40.96 112.64-40.96 153.6 0 0 0 0 0 0 0l291.84 291.84c46.080 40.96 46.080 107.52 5.12 148.48 0 5.12 0 5.12 0 0v0zM404.48 39.497c-5.12-5.12-15.36-5.12-20.48 5.12l-179.2 307.2 261.12-271.36-61.44-40.96zM926.72 372.297l-291.84-291.84c-5.12-5.12-15.36-5.12-25.6 0l-414.72 414.72c-5.12 51.2-10.24 102.4-10.24 153.6v158.72c0 10.24 10.24 15.36 15.36 15.36h291.84c5.12 0 10.24 0 10.24-5.12l424.96-424.96c10.24-5.12 10.24-15.36 0-20.48 0 0 0 0 0 0zM337.92 792.137c-66.56 0-117.76-51.2-117.76-117.76s51.2-117.76 117.76-117.76 122.88 51.2 122.88 117.76v0c0 66.56-56.32 117.76-122.88 117.76zM337.92 648.777c-15.36 0-25.6 10.24-25.6 25.6s10.24 25.6 25.6 25.6c15.36 0 25.6-10.24 25.6-25.6 0 0 0 0 0 0 0-15.36-10.24-25.6-25.6-25.6z" />
<glyph unicode="&#xe923;" glyph-name="close" d="M656.8 438.857l217.2 217.2c18.413 18.509 29.796 44.028 29.796 72.206 0 56.548-45.841 102.389-102.389 102.389-28.178 0-53.697-11.382-72.21-29.8l-217.196-217.196-217.2 217.2c-18.509 18.413-44.028 29.796-72.206 29.796-56.548 0-102.389-45.841-102.389-102.389 0-28.178 11.382-53.697 29.8-72.21l217.196-217.196-217.2-217.2c-18.542-18.531-30.012-44.138-30.012-72.423 0-56.548 45.841-102.389 102.389-102.389 28.285 0 53.892 11.469 72.422 30.011l217.2 217.201 217.2-217.2c18.515-18.447 44.057-29.851 72.262-29.851 56.548 0 102.389 45.841 102.389 102.389 0 28.205-11.405 53.747-29.854 72.265z" />
<glyph unicode="&#xe924;" glyph-name="my-flows" d="M1013.76 505.417l-179.2 266.24c-10.24 10.24-20.48 20.48-35.84 20.48h-568.32c-10.24 0-25.6-5.12-35.84-20.48l-189.44-266.24c-5.12-5.12-5.12-15.36-5.12-25.6v-358.4c0-20.48 20.48-40.96 46.080-40.96h936.96c25.6 0 46.080 20.48 46.080 46.080v358.4c-5.12 5.12-10.24 15.36-15.36 20.48zM256 705.097h517.12l122.88-179.2h-189.44c-25.6 0-46.080-20.48-46.080-46.080v-76.8c0-20.48-30.72-30.72-40.96-30.72h-209.92c-40.96 0-51.2 25.6-51.2 35.84v71.68c0 25.6-20.48 46.080-46.080 46.080h-184.32l128 179.2zM87.040 167.497v266.24h179.2v-30.72c5.12-71.68 71.68-128 143.36-122.88h220.16c40.96 5.12 117.76 40.96 117.76 117.76v30.72h184.32v-261.12h-844.8z" />
<glyph unicode="&#xe925;" glyph-name="popular-flows" horiz-adv-x="806" d="M362.835 454.983c-12.094 0-20.157-4.031-28.22-12.094-12.094-16.126-120.945-145.134-108.85-253.984 4.031-36.283 24.189-72.567 56.441-92.724 24.189-16.126 52.409-24.189 80.63-24.189 32.252 0 68.535 12.094 92.724 36.283 56.441 48.378 88.693 145.134-60.472 330.583-8.063 8.063-20.157 16.126-32.252 16.126zM403.15 164.715c-20.157-20.157-56.441-24.189-80.63-4.031-12.094 8.063-24.189 24.189-24.189 40.315-4.031 48.378 32.252 112.882 60.472 157.228 48.378-68.535 88.693-153.197 44.346-193.512zM765.984 503.361v0l-12.094 20.157c-28.22 60.472-72.567 108.85-129.008 145.134l-20.157 12.094-16.126-12.094c-20.157-12.094-24.189-16.126-8.063-145.134 0-8.063 0-24.189-8.063-32.252-4.031-4.031-8.063-4.031-12.094-4.031-4.031 24.189-8.063 44.346-8.063 68.535v12.094c0 16.126-4.031 28.22-8.063 44.346-84.661 370.898-274.142 338.646-282.205 338.646l-56.441-12.094 32.252-44.346c44.346-56.441-28.22-177.386-112.882-270.11-12.094-12.094-24.189-24.189-36.283-40.315v-4.031c-141.102-173.354-112.882-427.339 60.472-568.441s427.339-112.882 568.441 60.472c96.756 124.976 116.913 294.299 48.378 431.37zM725.669 507.392v0 0zM403.15-4.608c-185.449 0-334.614 149.165-334.614 334.614 0 76.598 28.22 153.197 76.598 213.669v0c8.063 8.063 16.126 20.157 28.22 28.22 64.504 72.567 157.228 193.512 145.134 294.299 48.378-20.157 116.913-84.661 161.26-274.142 4.031-12.094 4.031-20.157 4.031-32.252v-12.094c4.031-64.504 8.063-96.756 24.189-112.882 24.189-20.157 60.472-24.189 88.693-12.094 40.315 20.157 60.472 60.472 52.409 100.787 0 12.094-4.031 24.189-4.031 32.252 16.126-20.157 32.252-40.315 44.346-60.472l8.063-16.126c88.693-165.291 28.22-366.866-137.071-455.559-48.378-28.22-104.819-40.315-161.26-40.315l4.031 12.094z" />
<glyph unicode="&#xe926;" glyph-name="cancel" horiz-adv-x="1017" d="M1002.057 811.886l-102.4 102.4-387.657-387.657-387.657 387.657-102.4-102.4 380.343-387.657-380.343-387.657 102.4-102.4 387.657 387.657 387.657-387.657 102.4 102.4-387.657 387.657z" />
<glyph unicode="&#xe927;" glyph-name="calendar" d="M706.56 843.337v61.44h-71.68v-61.44h-245.76v61.44h-71.68v-61.44h-317.44v-865.28h1024v865.28h-317.44zM952.32 49.737h-880.64v527.36h880.64v-527.36zM952.32 648.777h-880.64v122.88h245.76v-61.44h71.68v61.44h245.76v-46.080h71.68v46.080h245.76v-122.88zM235.52 264.777h122.88v-122.88h-122.88v122.88zM450.56 264.777h122.88v-122.88h-122.88v122.88zM670.72 264.777h122.88v-122.88h-122.88v122.88zM450.56 479.817h122.88v-122.88h-122.88v122.88zM670.72 479.817h122.88v-122.88h-122.88v122.88zM235.52 479.817h122.88v-122.88h-122.88v122.88z" />
<glyph unicode="&#xe928;" glyph-name="bar-chart" d="M921.6 126.537v460.8c-10.24-15.36-25.6-30.72-46.080-40.96s-46.080-20.48-66.56-20.48v-399.36h-179.2v179.2c-15.36-5.12-35.84-10.24-56.32-10.24s-35.84 5.12-56.32 10.24v-179.2h-174.080v266.24c-15.36-5.12-35.84-10.24-56.32-10.24s-40.96 5.12-56.32 10.24v-266.24h-138.24v727.040h-92.16v-819.2h1024v92.16h-102.4zM286.72 469.577c25.6 0 51.2 10.24 71.68 30.72l128-40.96c10.24-40.96 46.080-76.8 92.16-76.8 51.2 0 92.16 40.96 92.16 92.16 0 10.24 0 15.36-5.12 25.6l174.080 168.96c10.24 0 15.36-5.12 25.6-5.12 51.2 0 92.16 40.96 92.16 92.16s-40.96 92.16-92.16 92.16-92.16-40.96-92.16-92.16c0-10.24 0-15.36 5.12-25.6l-174.080-168.96c-10.24 0-15.36 5.12-25.6 5.12-25.6 0-46.080-10.24-66.56-25.6l-133.12 46.080c-10.24 40.96-46.080 71.68-92.16 71.68-51.2 0-92.16-40.96-92.16-92.16s40.96-97.28 92.16-97.28z" />
<glyph unicode="&#xe929;" glyph-name="notification" d="M883.2 259.657v326.4c0 172.8-121.6 320-281.6 358.4h-6.4c-57.6 6.4-115.2 6.4-166.4 0-166.4-44.8-288-185.6-288-358.4v-326.4l-115.2-102.4v-57.6h966.4v57.6l-108.8 102.4zM774.4 202.057h-524.8v384c0 140.8 121.6 268.8 262.4 268.8s262.4-128 262.4-268.8v-384zM512-73.143c64 0 115.2 51.2 115.2 115.2h-230.4c0-64 51.2-115.2 115.2-115.2z" />
<glyph unicode="&#xe92a;" glyph-name="bold" d="M708.267 472.99c0 0 136.533 51.2 136.533 230.4 0 264.533-341.333 247.467-460.8 247.467h-273.067v-1024h264.533c247.467 0 529.067 0 529.067 281.6 8.533 238.933-196.267 264.533-196.267 264.533v0zM580.267 669.257c0-119.467-102.4-102.4-196.267-102.4v187.733c110.933 0 196.267 0 196.267-85.333v0zM375.467 114.59v256c119.467 0 264.533 17.067 264.533-136.533 0-119.467-162.133-119.467-264.533-119.467v0z" />
<glyph unicode="&#xe92b;" glyph-name="right" d="M312.889 768.813h688.356c11.378 0 22.756 11.378 22.756 22.756v79.644c0 11.378-11.378 22.756-22.756 22.756h-688.356c-17.067 5.689-28.444-5.689-28.444-22.756v-79.644c0-11.378 11.378-22.756 28.444-22.756zM273.067 239.746h728.178c11.378 0 22.756 11.378 22.756 22.756v79.644c0 11.378-11.378 22.756-22.756 22.756h-728.178c-11.378 0-22.756-11.378-22.756-22.756v-73.956c-5.689-17.067 5.689-28.444 22.756-28.444zM91.022 507.124h910.222c11.378 0 22.756 11.378 22.756 22.756v79.644c0 11.378-11.378 22.756-22.756 22.756h-910.222c-17.067 5.689-28.444-5.689-28.444-22.756v-79.644c0-11.378 11.378-22.756 28.444-22.756zM22.756-21.943h972.8c11.378 0 22.756 11.378 22.756 22.756v79.644c0 11.378-11.378 22.756-22.756 22.756h-972.8c-11.378 5.689-22.756-5.689-22.756-17.067v-79.644c0-17.067 11.378-28.444 22.756-28.444z" />
<glyph unicode="&#xe92c;" glyph-name="queries" d="M471.040 131.657c-66.56 0-97.28-35.84-97.28-102.4 0-30.72 10.24-56.32 25.6-76.8 15.36-15.36 40.96-25.6 71.68-25.6s56.32 10.24 71.68 25.6c15.36 20.48 25.6 46.080 25.6 76.8s-10.24 56.32-25.6 76.8c-10.24 20.48-35.84 25.6-71.68 25.6zM727.040 884.297c-51.2 40.96-122.88 66.56-209.92 66.56-102.4 0-204.8-25.6-296.96-76.8l56.32-117.76c35.84 15.36 71.68 30.72 107.52 40.96s76.8 20.48 117.76 20.48c46.080 0 81.92-10.24 107.52-30.72s35.84-51.2 35.84-87.040c0-30.72-10.24-61.44-25.6-81.92-15.36-25.6-51.2-56.32-102.4-97.28-46.080-35.84-76.8-71.68-97.28-102.4s-25.6-76.8-25.6-122.88v-40.96h133.12v30.72c0 35.84 5.12 66.56 20.48 87.040s40.96 51.2 81.92 81.92c51.2 35.84 81.92 71.68 102.4 92.16 20.48 25.6 35.84 51.2 46.080 76.8s15.36 56.32 15.36 92.16c10.24 66.56-15.36 128-66.56 168.96z" />
<glyph unicode="&#xe92d;" glyph-name="italic" d="M529.067-73.143h-238.933l204.8 1024h230.4l-196.267-1024z" />
<glyph unicode="&#xe92e;" glyph-name="left" d="M711.111 768.813h-688.356c-11.378 0-22.756 11.378-22.756 22.756v79.644c0 11.378 11.378 22.756 22.756 22.756h688.356c11.378 0 22.756-11.378 22.756-22.756v-79.644c5.689-11.378-5.689-22.756-22.756-22.756zM750.933 239.746h-728.178c-11.378 0-22.756 11.378-22.756 28.444v79.644c0 11.378 11.378 22.756 22.756 22.756h728.178c11.378 0 22.756-11.378 22.756-22.756v-79.644c5.689-17.067-5.689-28.444-22.756-28.444zM932.978 507.124h-910.222c-11.378 0-22.756 11.378-22.756 22.756v79.644c0 11.378 11.378 22.756 22.756 22.756h910.222c11.378 0 22.756-11.378 22.756-22.756v-79.644c5.689-11.378-5.689-22.756-22.756-22.756zM1001.244-21.943h-978.489c-11.378 0-22.756 11.378-22.756 22.756v79.644c0 11.378 11.378 22.756 22.756 22.756h972.8c11.378 0 22.756-11.378 22.756-22.756v-79.644c5.689-11.378-5.689-22.756-17.067-22.756z" />
<glyph unicode="&#xe92f;" glyph-name="center" d="M796.444 768.813h-568.889c-17.067 0-28.444 11.378-28.444 22.756v79.644c0 11.378 11.378 22.756 22.756 22.756h574.578c11.378 0 22.756-11.378 22.756-22.756v-79.644c5.689-11.378-5.689-22.756-22.756-22.756zM813.511 239.746h-603.022c-11.378 0-22.756 11.378-22.756 22.756v79.644c0 11.378 11.378 22.756 22.756 22.756h608.711c11.378 0 22.756-11.378 22.756-22.756v-73.956c0-17.067-11.378-28.444-28.444-28.444zM967.111 507.124h-910.222c-11.378 0-22.756 11.378-22.756 22.756v79.644c0 11.378 11.378 22.756 22.756 22.756h910.222c11.378 0 22.756-11.378 22.756-22.756v-79.644c0-11.378-11.378-22.756-22.756-22.756zM1001.244-21.943h-978.489c-11.378 0-22.756 11.378-22.756 22.756v79.644c0 11.378 11.378 22.756 22.756 22.756h972.8c11.378 0 22.756-11.378 22.756-22.756v-79.644c5.689-11.378-5.689-22.756-17.067-22.756z" />
<glyph unicode="&#xe930;" glyph-name="spinner" d="M300.571 154.286q0-30.286-21.429-51.714t-51.714-21.429q-29.714 0-51.429 21.714t-21.714 51.429q0 30.286 21.429 51.714t51.714 21.429 51.714-21.429 21.429-51.714zM585.143 36.571q0-30.286-21.429-51.714t-51.714-21.429-51.714 21.429-21.429 51.714 21.429 51.714 51.714 21.429 51.714-21.429 21.429-51.714zM182.857 438.857q0-30.286-21.429-51.714t-51.714-21.429-51.714 21.429-21.429 51.714 21.429 51.714 51.714 21.429 51.714-21.429 21.429-51.714zM869.714 154.286q0-29.714-21.714-51.429t-51.429-21.714q-30.286 0-51.714 21.429t-21.429 51.714 21.429 51.714 51.714 21.429 51.714-21.429 21.429-51.714zM318.857 723.428q0-37.714-26.857-64.571t-64.571-26.857-64.571 26.857-26.857 64.571 26.857 64.571 64.571 26.857 64.571-26.857 26.857-64.571zM987.429 438.857q0-30.286-21.429-51.714t-51.714-21.429-51.714 21.429-21.429 51.714 21.429 51.714 51.714 21.429 51.714-21.429 21.429-51.714zM621.714 841.143q0-45.714-32-77.714t-77.714-32-77.714 32-32 77.714 32 77.714 77.714 32 77.714-32 32-77.714zM924.571 723.428q0-53.143-37.714-90.571t-90.286-37.429q-53.143 0-90.571 37.429t-37.429 90.571q0 52.571 37.429 90.286t90.571 37.714q52.571 0 90.286-37.714t37.714-90.286z" />
<glyph unicode="&#xe931;" glyph-name="ticket" d="M1010.347 544.67l-44.373 68.267c-6.827 6.827-13.653 13.653-23.893 13.653s-20.48 0-27.307-6.827c-17.067-13.653-37.547-17.067-58.027-13.653s-40.96 17.067-51.2 34.133c-27.307 37.547-17.067 88.747 20.48 116.053 6.827 6.827 13.653 13.653 13.653 23.893 3.413 10.24 0 17.067-6.827 27.307l-44.373 68.267c-10.24 17.067-27.307 27.307-44.373 30.72s-37.547 0-51.2-10.24l-662.187-457.387c-30.72-20.48-40.96-64.853-20.48-95.573l44.373-68.267c3.413-6.827 13.653-13.653 20.48-17.067 10.24-3.413 20.48 0 27.307 6.827 17.067 10.24 37.547 17.067 58.027 10.24 20.48-3.413 37.547-17.067 51.2-34.133 23.893-37.547 13.653-88.747-27.307-116.053-13.653-10.24-20.48-30.72-10.24-47.787l44.373-68.267c10.24-17.067 27.307-27.307 44.373-30.72 3.413 0 10.24 0 13.653 0 13.653 0 27.307 3.413 37.547 10.24l675.84 460.8c34.133 20.48 44.373 64.853 20.48 95.573zM716.8 343.284l-40.96 64.853c-10.24 17.067-30.72 20.48-47.787 10.24s-20.48-30.72-10.24-47.787l44.373-64.853-382.293-259.413-27.307 44.373c47.787 47.787 58.027 126.293 20.48 187.733-20.48 34.133-54.613 58.027-95.573 64.853-27.307 6.827-54.613 3.413-81.92-6.827l-27.307 44.373c0 0 0 3.413 0 3.413s0 0 0 0l372.053 252.587 58.027-85.333c6.827-10.24 17.067-17.067 27.307-17.067 6.827 0 13.653 3.413 20.48 6.827 17.067 10.24 20.48 30.72 10.24 47.787l-58.027 85.333 232.107 157.013 27.307-40.96c-44.373-51.2-51.2-129.707-10.24-187.733 23.893-34.133 58.027-54.613 95.573-61.44 27.307-3.413 54.613-3.413 81.92 10.24l27.307-40.96-235.52-167.253z" />
<glyph unicode="&#xe932;" glyph-name="guided-popup" horiz-adv-x="927" d="M865.28 710.217h-803.84c-12.8 0-23.040-10.24-23.040-23.040v-58.88h849.92v58.88c0 12.8-10.24 23.040-23.040 23.040zM808.96 643.657c-12.8 0-23.040 10.24-23.040 23.040s10.24 23.040 23.040 23.040 23.040-10.24 23.040-23.040-10.24-23.040-23.040-23.040zM38.4 600.137v-478.72c0-17.92 15.36-33.28 33.28-33.28h780.8c17.92 0 33.28 15.36 33.28 33.28v478.72h-847.36zM660.48 364.617h-204.8v-212.48h46.080c7.68 0 12.8-5.12 12.8-12.8s-5.12-12.8-12.8-12.8h-117.76c-5.12 0-12.8 5.12-12.8 12.8s5.12 12.8 12.8 12.8h51.2v174.080h-148.48l-40.96 53.76 40.96 53.76h148.48v97.28c0 5.12 5.12 12.8 12.8 12.8s12.8-5.12 12.8-12.8v-30.72h204.8l56.32-66.56-61.44-69.12z" />
<glyph unicode="&#xe933;" glyph-name="info" d="M512 950.857c-279.893 0-512-232.107-512-512s232.107-512 512-512 512 232.107 512 512-232.107 512-512 512zM512-4.876c-245.76 0-443.733 197.973-443.733 443.733s197.973 443.733 443.733 443.733 443.733-197.973 443.733-443.733-197.973-443.733-443.733-443.733zM464.213 500.297h109.227v-375.467h-109.227v375.467zM518.827 698.27c-47.787 0-68.267-20.48-68.267-68.267s20.48-68.267 68.267-68.267c20.48 0 40.96 6.827 54.613 20.48 6.827 6.827 13.653 27.307 13.653 47.787 0 40.96-20.48 68.267-68.267 68.267z" />
<glyph unicode="&#xe934;" glyph-name="chat" horiz-adv-x="1195" d="M672.427 247.71c187.733 0 337.92 150.187 337.92 334.507s-150.187 334.507-337.92 334.507h-334.507c-187.733 0-337.92-150.187-337.92-334.507 0-174.080 133.12-314.027 303.787-334.507l-3.413-116.053c0-13.653 6.827-23.893 17.067-30.72 6.827-3.413 10.24-3.413 17.067-3.413s13.653 3.413 20.48 6.827l218.453 143.36h98.987zM542.72 309.15l-174.080-112.64 3.413 85.333c0 10.24-3.413 17.067-10.24 23.893s-13.653 10.24-23.893 10.24c-146.773 0-269.653 119.467-269.653 266.24s122.88 266.24 269.653 266.24h334.507c146.773 0 269.653-119.467 269.653-266.24s-119.467-266.24-269.653-266.24h-109.227c-6.827 0-13.653-3.413-20.48-6.827zM331.093 633.417c-30.72 0-58.027-23.893-58.027-58.027s27.307-58.027 61.44-58.027c34.133 0 61.44 27.307 61.44 58.027s-30.72 58.027-64.853 58.027zM583.68 575.39c0-32.047-27.508-58.027-61.44-58.027s-61.44 25.979-61.44 58.027c0 32.047 27.508 58.027 61.44 58.027s61.44-25.979 61.44-58.027zM771.413 575.39c0 34.133-27.307 58.027-61.44 58.027s-61.44-27.307-61.44-58.027 27.307-58.027 61.44-58.027c34.133 0 61.44 23.893 61.44 58.027zM1194.667 479.817c0 105.813-51.2 201.387-129.707 262.827 6.827-40.96 10.24-88.747 10.24-109.227 30.72-44.373 51.2-95.573 51.2-153.6 0-146.773-119.467-266.24-269.653-266.24-10.24 0-17.067-3.413-23.893-10.24s-10.24-17.067-10.24-23.893l3.413-109.227-170.667 136.533c-6.827 3.413 0 3.413-6.827 3.413l-112.64-64.853h85.333l218.453-177.493c6.827-3.413 13.653-6.827 20.48-6.827 3.413 0 10.24 0 13.653 3.413 13.653 6.827 20.48 17.067 20.48 30.72l-3.413 150.187c170.667 20.48 303.787 160.427 303.787 334.507z" />
<glyph unicode="&#xe935;" glyph-name="email-line" horiz-adv-x="956" d="M955.733 766.537c0 3.413 0 3.413 0 6.827s-3.413 3.413-6.827 6.827c0 0 0 3.413-3.413 3.413 0 0 0 0 0 0 0 3.413-3.413 3.413-6.827 3.413 0 0-3.413 3.413-6.827 3.413s-3.413 0-6.827 3.413c-3.413 0-3.413 0-6.827 0 0 0 0 0-3.413 0h-880.64c0 0 0 0-3.413 0s-3.413 0-6.827 0-3.413 0-6.827-3.413c-3.413 0-3.413-3.413-3.413-3.413-3.413 0-3.413-3.413-6.827-3.413 0 0 0 0 0 0s0-3.413-3.413-3.413c0-3.413-3.413-3.413-3.413-6.827s0-3.413 0-6.827c0 0 0-3.413 0-3.413v-645.12c0-20.48 13.653-34.133 34.133-34.133h887.467c20.48 0 34.133 13.653 34.133 34.133v645.12c0 0 0 0 0 3.413zM822.613 728.99l-348.16-273.067-341.333 273.067h689.493zM68.267 148.724v542.72l382.293-307.2c6.827-3.413 13.653-6.827 20.48-6.827s13.653 3.413 20.48 6.827l392.533 307.2v-542.72h-815.787z" />
<glyph unicode="&#xe936;" glyph-name="download" horiz-adv-x="1254" d="M595.592 245.551c10.449-10.449 20.898-10.449 31.347-10.449s20.898 5.224 31.347 10.449l172.408 172.408c15.673 15.673 15.673 41.796 0 57.469s-41.796 15.673-57.469 0l-104.49-104.49v538.122c0 20.898-20.898 41.796-41.796 41.796s-41.796-20.898-41.796-41.796v-532.898l-104.49 104.49c-15.673 15.673-41.796 15.673-57.469 0s-15.673-41.796 0-57.469l172.408-177.633zM1154.612 700.081h-94.041c-20.898 0-41.796-20.898-41.796-41.796s20.898-41.796 41.796-41.796h94.041c10.449 0 15.673-5.224 15.673-15.673v-496.327c0-47.020-41.796-88.816-88.816-88.816h-909.061c-47.020 0-88.816 41.796-88.816 88.816v496.327c0 10.449 5.224 15.673 15.673 15.673h99.265c20.898 0 41.796 20.898 41.796 41.796s-20.898 41.796-41.796 41.796h-99.265c-52.245 0-99.265-47.020-99.265-99.265v-496.327c0-94.041 78.367-172.408 172.408-172.408h909.061c94.041 0 172.408 78.367 172.408 172.408v496.327c0 52.245-47.020 99.265-99.265 99.265z" />
<glyph unicode="&#xe937;" glyph-name="menu-flow" d="M983.040 715.337c-20.48 0-40.96-20.48-40.96-40.96v-491.52c0-25.6-20.48-40.96-40.96-40.96h-583.68c-15.36 0-25.6-5.12-30.72-15.36l-81.92-97.28-66.56 76.8c-15.36 15.36-40.96 20.48-56.32 5.12s-20.48-40.96-5.12-56.32l97.28-112.64c5.12-10.24 15.36-15.36 30.72-15.36 0 0 0 0 0 0 10.24 0 25.6 5.12 30.72 15.36l102.4 122.88h563.2c66.56 0 122.88 56.32 122.88 122.88v486.4c0 25.6-20.48 40.96-40.96 40.96zM81.92 198.217v512c0 25.6 20.48 40.96 40.96 40.96h788.48c15.36 0 30.72 10.24 35.84 25.6s5.12 30.72-10.24 46.080l-117.76 117.76c-15.36 15.36-40.96 15.36-56.32 0s-15.36-40.96 0-56.32l46.080-46.080h-686.080c-66.56-5.12-122.88-56.32-122.88-128v-512c0-20.48 20.48-40.96 40.96-40.96s40.96 15.36 40.96 40.96zM399.36 628.297c-10.24-5.12-15.36-15.36-15.36-30.72v-291.84c0-15.36 5.12-25.6 20.48-30.72 5.12 0 10.24-5.12 15.36-5.12s15.36 0 20.48 5.12l209.92 158.72c10.24 5.12 15.36 20.48 15.36 30.72s-5.12 20.48-15.36 30.72l-215.040 133.12c-10.24 5.12-25.6 5.12-35.84 0zM455.68 531.017l112.64-71.68-112.64-81.92v153.6z" />
<glyph unicode="&#xe938;" glyph-name="hover" d="M972.8 305.737l-568.32 302.080c-10.24 5.12-20.48 5.12-25.6 0-10.24-10.24-15.36-20.48-10.24-30.72l168.96-624.64c5.12-10.24 10.24-15.36 20.48-20.48 10.24 0 20.48 0 25.6 10.24l107.52 153.6 133.12-163.84c5.12-5.12 10.24-10.24 20.48-10.24 5.12 0 10.24 0 15.36 5.12l66.56 51.2c5.12 5.12 10.24 10.24 10.24 15.36s0 15.36-5.12 20.48l-133.12 168.96 174.080 66.56c10.24 5.12 15.36 10.24 15.36 20.48 0 20.48-10.24 30.72-15.36 35.84zM747.52 223.817c-5.12-5.12-15.36-10.24-15.36-15.36 0-10.24 0-15.36 5.12-20.48l138.24-174.080-25.6-20.48-138.24 174.080c-5.12 5.12-10.24 10.24-20.48 10.24 0 0 0 0 0 0-10.24 0-15.36-5.12-20.48-10.24l-97.28-138.24-138.24 512 465.92-250.88-153.6-66.56zM491.52 653.897c5.12-15.36 15.36-20.48 30.72-20.48 15.36 5.12 20.48 15.36 20.48 30.72-20.48 71.68-76.8 122.88-143.36 133.12-97.28 15.36-189.44-46.080-204.8-143.36-15.36-66.56 15.36-138.24 71.68-179.2 5.12-5.12 10.24-5.12 15.36-5.12 10.24 0 15.36 5.12 20.48 10.24 10.24 15.36 5.12 30.72-5.12 40.96-46.080 25.6-66.56 76.8-56.32 128 10.24 66.56 76.8 112.64 148.48 102.4 46.080-10.24 87.040-46.080 102.4-97.28zM317.44 351.817c-133.12 25.6-225.28 138.24-225.28 271.36 0 153.6 122.88 276.48 276.48 276.48s276.48-122.88 276.48-276.48c0-20.48 0-35.84-5.12-56.32-5.12-10.24 0-25.6 15.36-25.6 15.36-5.12 25.6 5.12 30.72 20.48 5.12 20.48 5.12 40.96 5.12 61.44 0 179.2-148.48 327.68-327.68 327.68s-322.56-148.48-322.56-327.68c0-158.72 112.64-296.96 271.36-322.56 0 0 5.12 0 5.12 0 10.24 0 25.6 10.24 25.6 20.48 0 15.36-10.24 30.72-25.6 30.72z" />
<glyph unicode="&#xe939;" glyph-name="menu-pop-up" d="M921.6 853.577h-819.2c-56.32 0-102.4-46.080-102.4-102.4v-624.64c0-56.32 46.080-102.4 102.4-102.4h819.2c56.32 0 102.4 46.080 102.4 102.4v624.64c0 56.32-46.080 102.4-102.4 102.4zM901.12 792.137c25.6 0 40.96-20.48 40.96-40.96 0-25.6-20.48-40.96-40.96-40.96s-40.96 20.48-40.96 40.96c-5.12 25.6 15.36 40.96 40.96 40.96zM752.64 792.137c25.6 0 40.96-20.48 40.96-40.96 0-25.6-20.48-40.96-40.96-40.96s-40.96 20.48-40.96 40.96c0 25.6 20.48 40.96 40.96 40.96zM609.28 792.137c25.6 0 40.96-20.48 40.96-40.96 0-25.6-20.48-40.96-40.96-40.96s-46.080 20.48-46.080 40.96c0 25.6 20.48 40.96 46.080 40.96zM952.32 126.537c0-15.36-15.36-30.72-30.72-30.72h-819.2c-15.36 0-30.72 15.36-30.72 30.72v517.12h880.64v-517.12zM291.84 218.697h440.32c25.6 0 46.080 20.48 46.080 46.080v10.24c0 25.6-20.48 46.080-46.080 46.080h-440.32c-25.6 0-46.080-20.48-46.080-46.080v-10.24c0-25.6 20.48-46.080 46.080-46.080zM363.52 454.217h296.96c20.48 0 35.84 15.36 35.84 35.84s-15.36 35.84-35.84 35.84h-296.96c-20.48 0-35.84-15.36-35.84-35.84 5.12-20.48 20.48-35.84 35.84-35.84z" />
<glyph unicode="&#xe93a;" glyph-name="alert" horiz-adv-x="1151" d="M1139.056 41.913l-506.247 874.427c-28.764 46.022-97.798 46.022-126.562 0l-247.371-442.966-253.124-437.213c-28.764-46.022 5.753-109.303 63.281-109.303h1006.742c57.528 5.753 92.045 63.281 63.281 115.056zM488.989 674.722c0 11.506 5.753 17.258 17.258 17.258h132.315c11.506 0 17.258-5.753 17.258-17.258v-103.551l-46.022-264.629c0-5.753-11.506-17.258-17.258-17.258h-34.517c-5.753 0-17.258 5.753-17.258 17.258l-51.775 258.876v109.303zM575.281 18.902c-46.022 0-86.292 40.27-86.292 92.045s40.27 92.045 86.292 92.045c51.775 0 92.045-40.27 92.045-92.045s-46.022-92.045-92.045-92.045z" />
<glyph unicode="&#xe93b;" glyph-name="analytics-flow" d="M254.293-13.41c-5.12 0-10.24 1.707-13.653 5.12l-87.040 104.107c-6.827 6.827-5.12 18.773 1.707 23.893s18.773 5.12 23.893-1.707l75.093-88.747 92.16 109.227c3.413 3.413 8.533 6.827 13.653 6.827h481.28c34.133 0 61.44 27.307 61.44 61.44v452.267c0 10.24 6.827 17.067 17.067 17.067s17.067-6.827 17.067-17.067v-452.267c0-52.907-42.667-95.573-95.573-95.573h-474.453l-98.987-119.467c-3.413-3.413-8.533-5.12-13.653-5.12 1.707 0 1.707 0 0 0zM105.813 198.217c-10.24 0-17.067 6.827-17.067 17.067v474.453c0 52.907 42.667 95.573 95.573 95.573h628.053l-80.213 78.507c-6.827 6.827-6.827 17.067 0 23.893s17.067 6.827 23.893 0l109.227-107.52c5.12-5.12 6.827-11.947 3.413-18.773s-8.533-10.24-15.36-10.24h-670.72c-34.133 0-61.44-27.307-61.44-61.44v-474.453c1.707-10.24-6.827-17.067-15.36-17.067zM424.96 300.617c-3.413 0-5.12 0-8.533 1.707-5.12 3.413-8.533 8.533-8.533 15.36v266.24c0 6.827 3.413 11.947 8.533 15.36s11.947 3.413 17.067 0l192.853-122.88c5.12-3.413 8.533-8.533 8.533-13.653s-1.707-10.24-6.827-13.653l-192.853-143.36c-3.413-3.413-6.827-5.12-10.24-5.12zM442.027 553.204v-201.387l146.773 107.52-146.773 93.867z" />
<glyph unicode="&#xe93c;" glyph-name="beta" horiz-adv-x="2458" d="M1822.72 350.11c-13.653-13.653-20.48-27.307-20.48-47.787 0-34.133 20.48-47.787 54.613-47.787 27.307 0 47.787 6.827 61.44 20.48s20.48 34.133 20.48 61.44v27.307h-40.96c-40.96 0-61.44-6.827-75.093-13.653zM1105.92 513.95c-20.48 0-40.96-6.827-54.613-20.48s-20.48-34.133-20.48-61.44h157.013c0 27.307-6.827 47.787-20.48 61.44s-34.133 20.48-61.44 20.48zM628.053 411.55h-68.267v-136.533h75.093c34.133 0 54.613 6.827 68.267 20.48s20.48 27.307 20.48 54.613c0 34.133-34.133 61.44-95.573 61.44zM689.493 513.95c13.653 6.827 20.48 27.307 20.48 47.787s-6.827 34.133-20.48 40.96c-13.653 13.653-40.96 13.653-75.093 13.653h-54.613v-116.053h68.267c27.307 0 47.787 6.827 61.44 13.653zM1945.6 950.857h-1433.6c-279.893 0-512-232.107-512-512s232.107-512 512-512h1433.6c279.893 0 512 232.107 512 512s-232.107 512-512 512zM785.067 220.404c-34.133-27.307-81.92-40.96-143.36-40.96h-197.973v532.48h163.84c75.093 0 129.707-13.653 163.84-34.133s54.613-54.613 54.613-102.4c0-34.133-6.827-61.44-20.48-81.92s-34.133-34.133-61.44-34.133v-6.827c34.133-6.827 61.44-20.48 75.093-40.96s20.48-47.787 20.48-81.92c0-47.787-13.653-81.92-54.613-109.227zM1290.24 350.11h-266.24c0-34.133 13.653-54.613 27.307-75.093s40.96-27.307 75.093-27.307c27.307 0 47.787 0 68.267 6.827s47.787 13.653 68.267 27.307v-81.92c-20.48-6.827-40.96-20.48-61.44-20.48-20.48-6.827-47.787-6.827-81.92-6.827-68.267 0-116.053 20.48-157.013 54.613-34.133 34.133-54.613 88.747-54.613 157.013s20.48 122.88 54.613 157.013c34.133 34.133 81.92 54.613 143.36 54.613 54.613 0 102.4-13.653 136.533-47.787s47.787-81.92 47.787-136.533v-61.44zM1624.747 186.27c-27.307-13.653-61.44-20.48-102.4-20.48-47.787 0-75.093 13.653-95.573 34.133s-27.307 54.613-27.307 102.4v197.973h-54.613v47.787l61.44 34.133 27.307 88.747h68.267v-88.747h116.053v-81.92h-116.053v-197.973c0-13.653 6.827-27.307 13.653-34.133s20.48-13.653 34.133-13.653c20.48 0 40.96 6.827 68.267 13.653v-81.92zM2048 179.444h-75.093l-20.48 54.613c-20.48-20.48-40.96-40.96-61.44-47.787s-47.787-13.653-75.093-13.653c-40.96 0-68.267 13.653-95.573 34.133-20.48 20.48-34.133 54.613-34.133 95.573s13.653 75.093 47.787 95.573c27.307 20.48 75.093 34.133 136.533 34.133h68.267v20.48c0 40.96-20.48 61.44-61.44 61.44-34.133 0-68.267-6.827-116.053-27.307l-34.133 75.093c47.787 27.307 102.4 34.133 157.013 34.133s95.573-13.653 129.707-34.133c20.48-27.307 34.133-61.44 34.133-109.227v-273.067z" />
<glyph unicode="&#xe93d;" glyph-name="analytics-smart-tip" d="M290.133 129.95c0 0 0 0 0 0-5.12 0-8.533 1.707-11.947 5.12l-97.28 102.4h-81.92c-39.253 0-69.973 30.72-69.973 66.56v375.467c0 37.547 32.427 66.56 69.973 66.56h827.733c39.253 0 69.973-30.72 69.973-66.56v-375.467c0-37.547-32.427-66.56-69.973-66.56h-525.653l-97.28-102.4c-3.413-3.413-8.533-5.12-13.653-5.12zM98.987 713.63c-20.48 0-35.84-15.36-35.84-32.427v-375.467c0-18.773 17.067-32.427 35.84-32.427h88.747c5.12 0 8.533-1.707 11.947-5.12l90.453-93.867 90.453 93.867c3.413 3.413 8.533 5.12 11.947 5.12h532.48c20.48 0 35.84 15.36 35.84 32.427v375.467c0 18.773-17.067 32.427-35.84 32.427h-826.027zM800.427 554.91h-597.333c-10.24 0-17.067 6.827-17.067 17.067s6.827 17.067 17.067 17.067h599.040c10.24 0 17.067-6.827 17.067-17.067s-8.533-17.067-18.773-17.067zM537.6 409.844h-334.507c-10.24 0-17.067 6.827-17.067 17.067s6.827 17.067 17.067 17.067h334.507c10.24 0 17.067-6.827 17.067-17.067s-6.827-17.067-17.067-17.067z" />
<glyph unicode="&#xe93e;" glyph-name="play" d="M409.6 596.724v-315.733l226.133 153.6z" />
<glyph unicode="&#xe93f;" glyph-name="logo" horiz-adv-x="4911" d="M13.033 680.893h57.716c85.178 0 104.727-20.015 127.535-102.865 28.393-103.331 53.993-206.662 82.851-309.527 1.565-10.44 3.837-19.7 6.856-28.616 6.642-13.274 7.573-36.547 25.261-36.547s14.429 23.738 18.153 37.236c36.305 127.069 82.385 250.88 106.124 380.742 3.258 17.222 11.171 32.116 30.255 34.444 71.215 8.844 144.756-13.498 167.564-96.349 29.324-107.055 67.025-211.782 101.004-317.905 3.087-16.058 11.837-29.675 24.048-38.985 46.324 100.174 84.463 217.201 108.769 339.215 9.612 45.136 17.059 80.045 23.11 114.955 4.189 23.273 15.825 30.72 39.098 31.651 115.898 4.655 148.015-29.789 120.553-139.636-49.121-211.349-121.808-397.664-217.019-569.785-35.258-61.371-65.978-67.422-129.745-14.826-23.154 19.239-41.387 43.597-53.070 71.385-21.868 51.96-42.814 102.695-63.294 153.429s-39.564 99.142-62.836 156.858c-24.388-79.672-49.991-145.849-79.604-209.789-20.934-46.211-42.345-103.462-69.341-159.782s-46.545-57.251-93.091-26.996c-44.767 29.774-80.817 69.25-105.753 115.593-75.724 144.013-131.814 309.276-160.162 483.845-3.346 22.212-4.541 37.008-4.541 52.082 0 1.35 0.010 2.698 0.029 4.043zM3589.12 950.857c21.074-2.567 40.254-8.14 57.983-16.321 46.999-18.902 80.401-65.267 80.401-119.433 0-11.132-1.411-21.935-4.063-32.239-5.856-19.12-19.354-10.742-29.594-9.346-21.314 3.844-45.847 6.042-70.893 6.042-9.776 0-19.473-0.335-29.081-0.994-1.205 0.283-4.12 0.404-7.062 0.404-58.096 0-105.193-47.096-105.193-105.193 0-4.877 0.332-9.676 0.974-14.377-0.061-68.807-0.061-68.807 66.964-68.807 37.236 0 74.473 0 111.244 0 21.411 0 27.927-8.378 29.789-28.858 5.585-58.182-9.775-86.109-64.698-102.865-32.154-10.113-70.314-18.285-109.545-22.972-29.16-3.094-32.884-14.265-32.884-37.072 0-136.378 0-272.291 0-408.669 0-51.665 0-51.665-53.527-50.269-0.024 0-0.052 0-0.080 0-17.281 0-34.126 1.865-50.346 5.404-40.586 6.804-73.115 40.44-78.456 82.556-2.521 15.174-4.036 32.236-4.237 49.614-0.002 186.383-0.002 368.841-0.002 553.161 0 160.582 62.371 256.465 186.182 299.753 21.263 9.853 45.932 17.056 71.822 20.35zM3944.262 950.857c8.885-3.774 16.548-8.299 23.517-13.679 32.565-18.531 54.326-53.287 54.326-93.125 0-10.705-1.571-21.044-4.496-30.797-13.461-43.072-53.035-74.599-100.179-76.038-1.321-0.050-2.679-0.076-4.043-0.076-46.729 0-86.245 30.879-99.258 73.344-3.477 10.605-5.372 21.967-5.372 33.772 0 38.831 20.496 72.875 51.26 91.904 7.91 4.921 17.22 14.696 26.529 14.696zM1367.971 613.402c8.293 4.813 15.465 10.205 21.927 16.339 93.040 130.745 375.571 77.218 423.978-120.135 13.107-60.315 20.614-129.602 20.614-200.642 0-5.717-0.049-11.422-0.145-17.116 2.339-103.406 0.011-208.133 0.011-312.86 0-26.531-10.705-34.909-36.305-36.771-100.073-6.516-146.618 33.978-148.48 135.447s0 195.491 0 293.236c0.102 2.261 0.159 4.913 0.159 7.578 0 34.918-9.935 67.515-27.133 95.119-21.849 38.782-63.575 65.049-111.435 65.049-4.531 0-9.006-0.235-13.415-0.695-54.457-4.597-99.68-41.833-116.011-92.096-8.301-22.948-12.948-48.346-12.948-74.83 0-2.5 0.041-4.99 0.124-7.469-0.009-127.639-0.009-255.639-0.009-383.639 0-25.6-6.982-35.375-33.047-40.029-10.329-3.357-22.213-5.292-34.55-5.292-62.011 0-112.602 48.898-115.318 110.24-2.42 14.891-3.933 31.949-4.194 49.311-0.003 266.978-0.003 534.149-0.003 800.854 0 33.513 9.309 46.545 41.425 36.771 14.429-3.258 29.789-3.724 46.545-5.585 55.992-0.733 101.1-46.295 101.1-102.392 0-3.774-0.204-7.5-0.602-11.168 0.040-64.244 0.040-128.942 0.040-201.088zM4514.909 192.632c-62.3-59.636-108.99-135.086-133.644-219.913-0.873-12.349-0.873-22.123-12.509-27.709-12.254-2.83-26.326-4.452-40.776-4.452-33.174 0-64.352 8.548-91.451 23.562-13.984 13.629-23.292 33.59-23.292 55.725 0 13.515 3.47 26.22 9.568 37.271 19.74 50.992 46.794 95.249 80.315 133.724 30.262 38.096 60.982 77.194 92.633 113.499 8.148 6.18 13.356 15.869 13.356 26.773 0 8.927-3.491 17.039-9.181 23.045-33.498 46.53-66.080 93.076-99.128 141.948-32.080 43.563-60.336 93.21-82.48 146.053-10.146 26.631-7.353 35.474 18.713 38.733 11.897 2.574 25.564 4.048 39.575 4.048 71.731 0 134.439-38.634 168.451-96.228 28.89-47.456 64.265-87.019 96.381-130.307 8.844-12.567 15.36-22.342 30.255-6.051 57.071 48.873 101.39 111.006 128.364 181.704 15.462 58.471 52.233 45.438 86.211 46.834 0.962 0.052 2.089 0.082 3.223 0.082 32.365 0 59.057-24.289 62.842-55.634 1.973-8.28 3.087-17.437 3.087-26.855 0-28.382-10.12-54.4-26.95-74.642-46.391-63.577-89.679-128.74-139.482-188.784-11.887-10.055-19.383-24.981-19.383-41.658s7.496-31.603 19.303-41.592c28.473-33.579 52.211-70.815 76.88-107.121 30.201-46.589 69.526-84.724 115.703-112.677 37.897-21.374 38.363-45.113 7.643-72.574-21.785-21.632-51.798-35.001-84.935-35.001-19.963 0-38.792 4.852-55.373 13.441-65.265 31.219-119.109 78.938-157.144 137.824-25.574 37.801-47.45 74.572-76.308 115.067zM2746.182 430.479c0 80.989 0 162.444 0 241.105-0.005 0.478-0.007 1.043-0.007 1.608 0 82.695 55.014 152.541 130.44 174.936 44.113 7.776 51.56 0.329 51.56-41.562 0-28.858 0-57.716 0-86.575s5.585-33.513 31.651-33.047c60.509 0 121.018 0 181.527 0 28.858 0 38.167-10.24 41.891-36.305 2.37-8.155 3.733-17.522 3.733-27.207 0-55.783-45.221-101.004-101.004-101.004-2.296 0-4.575 0.077-6.833 0.227-39.257-2.809-79.286-3.275-119.315-3.275-19.084 0-26.996-6.982-26.531-26.531 0-105.658 0-211.782 2.793-317.44 0.733-40.823 33.998-73.635 74.927-73.635 1.314 0 2.62 0.034 3.917 0.101 10.348-0.758 22.635-1.186 35.022-1.186 32.632 0 64.57 2.969 95.56 8.652 30.284 6.025 39.593-6.077 39.593-38.659 0.556-4.332 0.874-9.344 0.874-14.43 0-66.065-53.557-119.622-119.622-119.622-0.143 0-0.287 0-0.43 0.001-15.342-2.024-33.109-3.179-51.145-3.179-28.339 0-56.011 2.852-82.747 8.285-116.035 24.684-183.526 112.189-183.526 245.775 0 80.989 0 161.978 0 243.433zM3828.829 374.159c0 85.178 0 170.356 0 255.535 0 29.789 10.24 36.771 37.236 38.167 88.436 3.724 136.378-37.236 139.636-128.931 3.258-101.469 0-203.404 2.793-304.873 0-17.687 0-35.84 0-53.527 4.189-66.56 17.687-78.196 82.851-93.091 20.945-4.189 55.855 16.291 60.509-28.393 6.516-62.371-9.309-101.469-51.2-118.225-20.625-7.778-44.466-12.28-69.358-12.28-106.715 0-194.103 82.748-201.5 187.581-0.036 85.819-0.036 170.997-0.036 256.176zM2572.102 509.141c-12.72 73.404-63.688 132.421-131.246 156.422-50.68 19.223-107.661 30.102-167.183 30.102-53.573 0-105.088-8.813-153.174-25.068-60.975-20.070-106.635-79.568-106.635-149.731 0-17.846 2.954-35.002 8.399-51.006 61.786 47.068 139.901 74.668 224.463 74.668 16.249 0 32.261-1.019 47.973-2.997 0.37 0.356 2.983 0.449 5.619 0.449 60.41 0 109.382-48.972 109.382-109.382 0-1.072-0.015-2.141-0.046-3.206 0.004-24.047-3.72-31.96-30.716-32.891-1.172 0.005-2.559 0.008-3.947 0.008-89.75 0-176.522-12.752-258.602-36.543-60.688-15.276-112.444-67.652-128.184-133.972-5.367-18.823-8.311-39.014-8.311-59.893 0-92.506 57.786-171.515 139.229-202.9 50.941-22.557 108.651-35.4 169.36-35.4 52.362 0 102.492 9.554 148.743 27.013 79.803 22.861 140.647 94.379 148.316 181.17 5.71 44.634 8.936 95.348 8.936 146.815 0 80.056-7.806 158.289-22.7 233.978zM2216.495 94.421c-28.805 13.531-48.393 42.3-48.393 75.644 0 6.18 0.673 12.203 1.949 18 3.717 35.562 33.523 63.597 70.081 64.609 41.060 4.657 81.555 10.242 122.515 14.431 51.665 5.12 53.062 3.258 52.596-46.545 0-120.087-93.091-177.804-198.749-123.811z" />
<glyph unicode="&#xe940;" glyph-name="configure" d="M55.808 634.441h409.6c23.082-84.169 98.902-144.994 188.928-144.994s165.846 60.825 188.606 143.621l123.202 1.373c28.277 0 51.2 22.923 51.2 51.2s-22.923 51.2-51.2 51.2h-122.88c-23.082 84.169-98.902 144.994-188.928 144.994s-165.846-60.825-188.606-143.621l-409.922-1.373c-28.277 0-51.2-22.923-51.2-51.2s22.923-51.2 51.2-51.2zM656.896 779.337c50.738-0.579 91.647-41.846 91.647-92.666 0-51.181-41.491-92.672-92.672-92.672-50.999 0-92.377 41.196-92.67 92.126 0 0.028 0 0.029 0 0.029 0 51.464 41.72 93.184 93.184 93.184 0.18 0 0.36-0.001 0.54-0.002zM968.192 242.761h-409.6c-23.082 84.169-98.902 144.994-188.928 144.994s-165.846-60.825-188.606-143.621l-125.25-1.373c-28.277 0-51.2-22.923-51.2-51.2s22.923-51.2 51.2-51.2h122.88c23.082-84.169 98.902-144.994 188.928-144.994s165.846 60.825 188.606 143.621l409.922 1.373c28.277 0 51.2 22.923 51.2 51.2s-22.923 51.2-51.2 51.2zM367.104 97.865c-50.739 0.579-91.648 41.845-91.648 92.666 0 51.181 41.491 92.672 92.672 92.672 51.179 0 92.669-41.487 92.672-92.666-0.29-51.244-41.898-92.674-93.183-92.674-0.18 0-0.361 0.001-0.541 0.002z" />
<glyph unicode="&#xe941;" glyph-name="menu-self-help" d="M512 950.857c-281.6 0-512-230.4-512-512s230.4-512 512-512 512 230.4 512 512-230.4 512-512 512zM916.48 531.017l-184.32-30.72c-20.48 76.8-81.92 138.24-163.84 158.72l35.84 184.32c153.6-35.84 276.48-158.72 312.32-312.32zM512 305.737c-71.68 0-133.12 61.44-133.12 133.12s61.44 133.12 133.12 133.12c71.68 0 133.12-61.44 133.12-133.12s-61.44-133.12-133.12-133.12zM404.48 838.217l30.72-184.32c-71.68-25.6-122.88-81.92-143.36-153.6l-184.32 30.72c30.72 148.48 148.48 271.36 296.96 307.2zM107.52 331.337l184.32 35.84c20.48-66.56 76.8-122.88 143.36-143.36l-30.72-184.32c-143.36 35.84-256 148.48-296.96 291.84zM604.16 34.377l-35.84 184.32c76.8 20.48 133.12 76.8 158.72 148.48l184.32-35.84c-35.84-148.48-158.72-266.24-307.2-296.96z" />
<glyph unicode="&#xe942;" glyph-name="copy" d="M901.12 950.857v0h-546.033c-68.367 0-122.88-54.513-122.88-122.88v-109.327h-109.327c-68.367 0-122.88-54.513-122.88-122.88v-546.033c0-68.367 54.513-122.88 122.88-122.88h546.033c68.367 0 122.88 54.513 122.88 122.88v109.327h109.327c68.367 0 122.88 54.513 122.88 122.88v546.033c0 74.993-54.513 122.88-122.88 122.88zM675.84 281.944v0-225.28c0 0 0-6.927-6.927-6.927h-546.033c0 0-6.927 0-6.927 6.927v546.033c0 0 0 6.927 6.927 6.927h546.033c0 0 6.927 0 6.927-6.927v-320.753zM908.047 281.944l-115.953-0.301v327.981c0 68.367-54.513 122.88-122.88 122.88h-321.054v102.4c0 0 0 6.927 6.927 6.927h546.033c0 0 6.927 0 6.927-6.927v-552.96z" />
<glyph unicode="&#xe943;" glyph-name="menu-smart-tip" d="M286.72 106.057c0 0 0 0 0 0-10.24 0-20.48 5.12-30.72 15.36l-92.16 97.28h-66.56c-51.2 0-97.28 40.96-97.28 92.16v373.76c0 51.2 40.96 92.16 97.28 92.16h834.56c51.2 0 97.28-40.96 97.28-92.16v-378.88c0-51.2-40.96-92.16-97.28-92.16h-522.24l-92.16-97.28c-5.12-10.24-15.36-10.24-30.72-10.24zM97.28 689.737c-10.24 0-15.36-5.12-15.36-10.24v-378.88c0-5.12 5.12-10.24 15.36-10.24h92.16c10.24 0 20.48-5.12 30.72-15.36l71.68-76.8 71.68 76.8c10.24 10.24 20.48 10.24 30.72 10.24h537.6c5.12 0 15.36 5.12 15.36 10.24v389.12c0 5.12-5.12 10.24-15.36 10.24h-834.56zM803.84 536.137h-604.16c-20.48 0-35.84 15.36-35.84 35.84s15.36 35.84 35.84 35.84h604.16c20.48 0 35.84-15.36 35.84-35.84s-15.36-35.84-35.84-35.84zM537.6 392.777h-337.92c-20.48 0-35.84 15.36-35.84 35.84s15.36 35.84 35.84 35.84h337.92c20.48 0 35.84-15.36 35.84-35.84s-15.36-35.84-35.84-35.84z" />
<glyph unicode="&#xe944;" glyph-name="segment" d="M940.032 169.545l7.168 10.24s0 0 0 3.072c43.343 73.042 68.959 161.016 68.959 254.973 0 279.377-226.479 505.856-505.856 505.856s-505.856-226.479-505.856-505.856c0-279.377 226.479-505.856 505.856-505.856 0.597 0 1.194 0.001 1.79 0.003 21.546 0.157 42.677 1.64 63.414 4.374l11.757-0.278c16.384 0 32.768 5.632 48.64 9.728l11.264 3.072c43.29 12.159 81.030 28.224 116.106 48.399l2.678 1.777c17.379 10.149 31.918 19.79 45.899 30.143l10.421 7.745q18.944 14.848 36.352 30.72l11.776 12.8c12.95 12.853 25.173 26.374 36.64 40.533l13.024 17.323q9.728 14.336 19.968 31.232zM900.096 541.257l-172.032-172.032-82.432 51.2 216.576 216.576c15.58-27.53 28.554-59.39 37.275-92.965zM913.92 438.857s0 0 0-2.56c0-0.207 0.001-0.453 0.001-0.699 0-57.314-12.058-111.811-33.775-161.094l-79.889 50.689zM814.592 703.049l-240.64-240.64-10.752 5.632v118.272l181.248 180.224c26.368-18.896 49.368-39.783 69.747-63.026zM563.2 701.001v136.192c39.793-5.192 75.898-15.436 109.579-30.188zM109.568 438.857c0 13.312 0 26.624 0 39.424 0 4.096 0 8.704 0 12.8s0 17.408 4.096 25.6 0 9.728 3.584 14.848 3.584 14.848 5.632 22.528 3.584 10.24 5.12 15.36 4.608 13.824 7.68 20.48l6.656 14.848c3.072 6.656 6.144 12.8 9.216 18.944l8.192 14.336 10.752 17.92 9.216 13.824 12.288 16.896 12.8 12.288 14.336 15.872 11.264 11.776 15.872 14.336 11.776 10.24 18.432 13.824 11.776 8.704 22.528 13.824 9.728 5.632q16.384 8.704 33.792 16.384l9.216 3.584 26.624 9.728 13.824 4.096 23.040 6.144 15.872 3.072 17.92 1.024v-398.336c0-0.060 0-0.132 0-0.203 0-18.851 10.188-35.323 25.359-44.21l342.77-204.931-3.072-4.608c-5.632-7.168-11.776-13.312-17.92-19.968l-9.728-10.752c-9.691-9.712-19.872-18.92-30.509-27.589l-7.379-5.691c-9.216-7.168-18.944-14.336-28.672-20.48l-7.68-4.608c-9.728-6.144-19.968-11.776-30.72-16.896l-7.68-3.584q-15.872-7.68-32.768-13.824l-8.192-3.072c-11.264-4.096-22.528-7.168-33.792-10.24h-8.704c-11.264-2.56-23.040-4.608-34.816-6.144h-9.216c-14.141-1.766-30.507-2.774-47.108-2.774-221.047 0-400.362 178.672-401.403 399.474z" />
<glyph unicode="&#xe945;" glyph-name="segment-list" horiz-adv-x="870" d="M840.837 486.838v4.224c-0.108 31.998-24.511 58.262-55.721 61.317l-0.254 340.908c-0.001 7.013-5.686 12.699-12.7 12.7h-676.6c-7.013-0.001-12.699-5.686-12.7-12.7v-341.163c-30.216-4.338-53.197-30.001-53.299-61.052v-4.235c0.1-31.068 23.080-56.738 52.967-61.048l0.332-143.852c-30.216-4.338-53.197-30.001-53.299-61.052v-4.235c0.099-31.065 23.081-56.733 52.967-61.036l0.332-93.454c0.063-49.922 40.515-90.375 90.431-90.437h521.132c49.922 0.063 90.375 40.515 90.437 90.431v93.15c31.467 3.074 55.871 29.343 55.975 61.333v4.235c-0.108 31.998-24.511 58.262-55.721 61.317l-0.254 143.29c31.468 3.080 55.872 29.352 55.974 61.346zM345.081 764.913h177.562c21.725 0 39.337-17.612 39.337-39.337s-17.612-39.337-39.337-39.337h-177.562c-21.725 0-39.337 17.612-39.337 39.337s17.612 39.337 39.337 39.337zM787.462 255.894c2.003-0.564 3.678-1.173 5.296-1.887 10.699-4.411 18.794-13.894 21.292-25.459 0.377-1.517 0.677-3.108 0.879-4.73 0.095-1.143 0.52-1.974 0.52-2.943v-4.224c0-0.688-0.319-1.275-0.356-1.956-0.232-2.6-0.684-4.986-1.347-7.283-0.974-3.659-2.538-7.103-4.578-10.207-0.143-0.223-0.33-0.61-0.568-0.96-1.327-1.946-2.742-3.648-4.301-5.206-1.956-1.999-4.115-3.785-6.448-5.328-0.765-0.466-1.378-0.779-2.021-1.115-5.542-3.341-12.224-5.335-19.368-5.381h-682.644c-0.008 0-0.018 0-0.027 0-8.123 0-15.661 2.503-21.885 6.779-0.513 0.321-0.994 0.902-1.606 1.346-1.842 1.404-3.473 2.879-4.974 4.479-1.326 1.365-2.535 2.82-3.625 4.365-0.651 0.958-1.063 1.9-1.569 2.782-1.445 2.406-2.662 5.184-3.507 8.12-0.883 2.891-1.437 5.952-1.607 9.115l-0.067 0.453v0.25c-0.013 0.45-0.131 0.862-0.131 1.313v0.463c0 0.45 0.119 0.869 0.131 1.313v0.888c0 0.444 0.2 0.819 0.219 1.256 0.212 2.464 0.62 4.724 1.214 6.907 2.595 11.19 10.467 20.388 20.859 24.822 1.016 0.451 1.796 0.795 2.609 1.107 1.044 0.356 1.931 1.031 3.013 1.294v-0.35c3.264 1.066 7.025 1.709 10.927 1.768h682.66c2.992-0.018 5.891-0.375 8.674-1.033l-0.262 0.165c0.931-0.156 1.694-0.7 2.6-0.919zM776.469 449.862h-681.906c-4.204 0.059-8.218 0.786-11.968 2.081l0.269-0.516c-16.107 4.018-27.861 18.335-27.912 35.407v4.23c0.148 14.709 9.081 27.295 21.797 32.773 1.555 0.787 3.152 1.487 4.801 2.079 0.641 0.192 0.941 0.442 1.316 0.535v-0.125c3.481 1.215 7.495 1.945 11.671 2.006h681.936c6.812-0.050 13.189-1.868 18.707-5.018 9.211-4.661 16.127-13.168 18.653-23.404 0.58-2.1 0.997-4.299 1.22-6.555 0.057-0.898 0.4-1.543 0.4-2.292v-4.224c0-0.881-0.394-1.631-0.456-2.5-0.229-2.052-0.576-3.886-1.048-5.669-2.513-11.044-10.18-20.16-20.343-24.677-5.154-2.601-10.966-4.089-17.122-4.129z" />
<glyph unicode="&#xe946;" glyph-name="menu-task-list" d="M849.92 541.257h-261.12c-20.48 0-35.84-15.36-35.84-35.84s15.36-35.84 35.84-35.84h261.12c20.48 0 35.84 15.36 35.84 35.84s-15.36 35.84-35.84 35.84zM849.92 315.977h-261.12c-20.48 0-35.84-15.36-35.84-35.84s15.36-35.84 35.84-35.84h261.12c20.48 0 35.84 15.36 35.84 35.84s-15.36 35.84-35.84 35.84zM389.12 346.697l-117.76-87.040-30.72 35.84c-10.24 15.36-35.84 15.36-46.080 5.12-15.36-10.24-15.36-35.84-5.12-46.080l51.2-61.44c5.12-10.24 10.24-10.24 20.48-10.24 5.12 0 15.36 0 20.48 5.12l143.36 102.4c15.36 10.24 20.48 30.72 10.24 46.080s-30.72 20.48-46.080 10.24zM389.12 561.737l-117.76-87.040-30.72 40.96c-15.36 15.36-35.84 15.36-51.2 5.12-15.36-15.36-15.36-35.84-5.12-51.2l51.2-61.44c5.12-10.24 15.36-10.24 25.6-10.24 5.12 0 15.36 0 20.48 5.12l143.36 102.4c15.36 10.24 20.48 30.72 10.24 46.080s-30.72 20.48-46.080 10.24zM921.6 868.937h-158.72c-15.36 46.080-56.32 81.92-107.52 81.92h-286.72c-51.2 0-92.16-30.72-107.52-76.8h-158.72c-56.32 0-102.4-51.2-102.4-112.64v-716.8c0-66.56 46.080-117.76 102.4-117.76h819.2c56.32 0 102.4 51.2 102.4 112.64v716.8c0 66.56-46.080 112.64-102.4 112.64zM368.64 879.177h286.72c10.24 0 15.36-5.12 20.48-5.12 10.24-5.12 20.48-20.48 20.48-35.84s-10.24-30.72-20.48-35.84c-5.12-5.12-10.24-10.24-20.48-10.24h-286.72c-10.24 0-15.36 5.12-20.48 5.12-15.36 10.24-20.48 20.48-20.48 35.84s10.24 30.72 20.48 35.84c5.12 5.12 10.24 10.24 20.48 10.24zM952.32 39.497c0-20.48-15.36-40.96-30.72-40.96h-819.2c-15.36 0-30.72 20.48-30.72 40.96v716.8c0 25.6 15.36 40.96 30.72 40.96h158.72c15.36-46.080 56.32-76.8 107.52-76.8h286.72c51.2 0 92.16 30.72 107.52 76.8h158.72c15.36 0 30.72-20.48 30.72-40.96v-716.8z" />
<glyph unicode="&#xe947;" glyph-name="live" horiz-adv-x="1764" d="M713.956 131.088c-4.755 0.143-9.231 1.175-13.321 2.935l0.237-0.091c-9.126 5.075-15.23 14.61-15.36 25.582v558.667c0.098 10.698 5.971 20.002 14.649 24.956l0.143 0.075c4.132 2.557 9.142 4.072 14.507 4.072s10.375-1.515 14.627-4.141l-0.12 0.069 408.462-259.982c7.537-4.986 12.57-13.233 13.081-22.682l0.003-0.073c-0.696-9.138-5.702-16.975-12.969-21.55l-0.116-0.068-406.187-299.804c-4.526-4.606-10.7-7.579-17.566-7.961l-0.069-0.003zM742.4 666.413v-450.56l327.68 241.778zM1355.093 115.728c-0.173-0.004-0.377-0.006-0.581-0.006-5.254 0-10.162 1.484-14.327 4.056l0.118-0.068c-8.352 5.057-13.849 14.093-13.849 24.414 0 5.489 1.555 10.615 4.248 14.961l-0.070-0.122c49.476 79.683 78.804 176.363 78.804 279.893s-29.327 200.21-80.127 282.187l1.323-2.293c-2.623 4.225-4.178 9.35-4.178 14.839 0 10.321 5.497 19.357 13.722 24.343l0.127 0.071c4.157 2.599 9.207 4.14 14.617 4.14 10.212 0 19.141-5.491 23.996-13.682l0.071-0.129c54.626-88.127 87.002-195.020 87.002-309.476s-32.376-221.35-88.469-312.023l1.467 2.548c-5.009-8.131-13.808-13.505-23.872-13.653h-0.021zM408.462 115.728c-0.049 0-0.107 0-0.166 0-10.241 0-19.217 5.412-24.226 13.531l-0.070 0.123c-54.626 88.127-87.002 195.020-87.002 309.476s32.376 221.35 88.469 312.023l-1.467-2.548c4.926 8.32 13.855 13.811 24.067 13.811 5.41 0 10.46-1.541 14.735-4.208l-0.118 0.068c8.352-5.057 13.849-14.093 13.849-24.414 0-5.489-1.555-10.615-4.248-14.961l0.070 0.122c-49.476-79.683-78.804-176.363-78.804-279.893s29.327-200.21 80.127-282.187l-1.323 2.293c2.623-4.225 4.178-9.35 4.178-14.839 0-10.321-5.497-19.357-13.722-24.343l-0.127-0.071c-4.045-2.501-8.949-3.982-14.199-3.982-0.008 0-0.016 0-0.024 0h0.001zM154.738-39.010c-0.073-0.001-0.158-0.001-0.244-0.001-10.054 0-18.84 5.434-23.579 13.526l-0.070 0.129c-82.175 132.281-130.885 292.791-130.885 464.679 0 171.504 48.493 331.682 132.517 467.57l-2.2-3.822c4.81 8.776 13.985 14.626 24.526 14.626 5.934 0 11.435-1.854 15.956-5.015l-0.090 0.060c8.352-5.057 13.849-14.093 13.849-24.414 0-5.489-1.555-10.615-4.248-14.961l0.070 0.122c-76.611-123.794-122.012-273.911-122.012-434.631s45.401-310.837 124.077-438.224l-2.065 3.593c2.591-4.257 4.125-9.405 4.125-14.911 0-10.155-5.217-19.091-13.117-24.275l-0.11-0.068c-4.362-2.522-9.596-4.011-15.177-4.011-0.465 0-0.927 0.010-1.387 0.031l0.065-0.002zM1608.818-39.010c-0.069-0.001-0.15-0.001-0.232-0.001-5.561 0-10.778 1.478-15.278 4.062l0.15-0.079c-8.010 5.252-13.227 14.188-13.227 24.343 0 5.506 1.534 10.654 4.197 15.039l-0.073-0.129c76.611 123.794 122.012 273.911 122.012 434.631s-45.401 310.837-124.077 438.224l2.065-3.593c-2.82 4.34-4.496 9.648-4.496 15.348 0 9.982 5.141 18.762 12.92 23.838l0.109 0.067c4.157 2.599 9.207 4.14 14.617 4.14 10.212 0 19.141-5.491 23.996-13.682l0.071-0.129c81.999-132.173 130.601-292.518 130.601-464.213s-48.602-332.040-132.799-468.025l2.198 3.812c-4.658-7.973-13.047-13.323-22.71-13.652l-0.046-0.001z" />
<glyph unicode="&#xe948;" glyph-name="edit_new" horiz-adv-x="890" d="M350.436 160.101c-7.82 0.047-14.87 3.307-19.903 8.525l-0.008 0.008-155.876 156.444c-5.197 5.156-8.414 12.3-8.414 20.196s3.217 15.040 8.412 20.194l512.002 512.002c5.156 5.197 12.3 8.414 20.196 8.414s15.040-3.217 20.194-8.412l155.878-155.878c5.312-4.994 8.62-12.066 8.62-19.911s-3.308-14.917-8.606-19.898l-0.014-0.013-512-512c-5.083-5.678-12.324-9.333-20.422-9.669l-0.058-0.002zM236.658 344.421l113.778-113.778 470.471 470.471-113.778 113.778zM28.444-6.014c-0.097-0.001-0.211-0.002-0.326-0.002-7.727 0-14.689 3.278-19.57 8.519l-0.015 0.016c-5.658 5.122-9.197 12.494-9.197 20.692 0 2.143 0.242 4.229 0.7 6.233l-0.036-0.187 50.062 205.369c2.367 10.172 9.949 18.132 19.71 20.998l0.201 0.051c2.342 0.71 5.033 1.119 7.82 1.119 7.87 0 14.979-3.262 20.048-8.507l155.884-155.884c5.253-5.076 8.515-12.185 8.515-20.055 0-2.787-0.409-5.478-1.17-8.018l0.051 0.197c-2.917-9.962-10.877-17.545-20.857-19.873l-0.192-0.038-204.8-49.493zM93.867 172.048l-26.738-113.778 113.778 26.738z" />
<glyph unicode="&#xe949;" glyph-name="more" horiz-adv-x="1177" d="M1018.311 280.137c-87.659 0-158.72 71.061-158.72 158.72s71.061 158.72 158.72 158.72c87.659 0 158.72-71.061 158.72-158.72v0c0-87.659-71.061-158.72-158.72-158.72v0zM1018.311 540.688c-56.24 0-101.831-45.591-101.831-101.831s45.591-101.831 101.831-101.831c56.24 0 101.831 45.591 101.831 101.831v0c-0.321 56.11-45.721 101.51-101.8 101.831h-0.031zM588.231 280.137c-87.414 0.323-158.151 71.26-158.151 158.719 0 87.659 71.061 158.72 158.72 158.72s158.72-71.061 158.72-158.719v0c0 0 0-0.001 0-0.001 0-87.659-71.061-158.72-158.72-158.72-0.2 0-0.4 0-0.6 0.001h0.031zM588.231 540.688c-55.995-0.323-101.262-45.79-101.262-101.83 0-56.24 45.591-101.831 101.831-101.831s101.83 45.59 101.831 101.829v0c0 0 0 0.001 0 0.002 0 56.24-45.591 101.831-101.831 101.831-0.2 0-0.4-0.001-0.6-0.002h0.031zM158.72 280.137c-87.414 0.323-158.151 71.26-158.151 158.719 0 87.659 71.061 158.72 158.72 158.72s158.72-71.061 158.72-158.719v0c0 0 0-0.001 0-0.001 0-87.659-71.061-158.72-158.72-158.72-0.2 0-0.4 0-0.6 0.001h0.031zM158.72 540.688c-55.995-0.323-101.262-45.79-101.262-101.83 0-56.24 45.591-101.831 101.831-101.831s101.83 45.59 101.831 101.829v0c0 0 0 0.001 0 0.002 0 56.24-45.591 101.831-101.831 101.831-0.2 0-0.4-0.001-0.6-0.002h0.031z" />
<glyph unicode="&#xe94a;" glyph-name="user-o" horiz-adv-x="950" d="M634.88 416.596c17.357 11.497 32.498 23.81 46.342 37.437l-0.039-0.039c52.292 52.757 84.605 125.394 84.605 205.577 0 0.979-0.005 1.957-0.014 2.934l0.001-0.149c-0.472 80.955-34.526 153.864-88.922 205.576l-0.122 0.115c-53.131 50.813-125.313 82.090-204.8 82.090s-151.669-31.277-204.911-82.195l0.111 0.105c-54.517-51.826-88.571-124.735-89.043-205.603v-0.088c0.909-80.875 34.853-153.647 88.946-205.597l0.098-0.093c14.237-14.391 29.655-27.549 46.119-39.338l1.074-0.731c-188.772-44.522-290.282-178.087-290.282-297.405s178.087-192.334 450.56-192.334c217.266 0 451.45 60.55 451.45 192.334s-106.852 251.993-291.172 297.405zM309.871 662.356c-0.016 0.845-0.025 1.842-0.025 2.841 0 44.297 17.676 84.466 46.359 113.838l-0.031-0.032c30.010 30.233 71.588 48.948 117.537 48.948 91.455 0 165.595-74.139 165.595-165.595 0-45.506-18.356-86.725-48.067-116.657l0.010 0.010c-30.393-29.386-71.851-47.496-117.537-47.496s-87.144 18.109-117.585 47.541l0.047-0.046c-28.655 29.602-46.316 69.997-46.316 114.517 0 0.749 0.005 1.496 0.015 2.243l-0.001-0.113zM474.602 53.299c-218.157 0-315.214 53.426-324.118 65.892 0 96.167 121.099 195.896 324.118 195.896s326.79-101.51 326.79-186.991c-11.576-19.59-113.976-74.797-326.79-74.797z" />
<glyph unicode="&#xe94b;" glyph-name="file" d="M864.397 950.857h-581.914l-204.094-211.862v-730.924c0-44.853 36.361-81.214 81.214-81.214v0h706.207c44.853 0 81.214 36.361 81.214 81.214v0 861.572c0 0.004 0 0.008 0 0.012 0 44.853-36.361 81.214-81.214 81.214-0.497 0-0.992-0.004-1.487-0.013l0.074 0.001zM269.065 795.491v-45.903h-43.785zM847.448 26.432h-669.484v623.581h190.676v201.269h478.808zM364.403 479.111h295.194v-98.869h-295.194v98.869zM364.403 281.373h295.194v-98.869h-295.194v98.869z" />
<glyph unicode="&#xe94c;" glyph-name="eye-open" d="M372.736 421.961c4.544-72.090 64.125-128.838 136.96-128.838s132.415 56.748 136.94 128.441c-0.059 11.913-1.737 23.005-4.801 33.507-0.81-38.231-31.353-68.14-68.882-68.14-38.174 0-69.12 30.946-69.12 69.12s30.946 69.12 69.12 69.12c9.211 0 18.002-1.802 26.038-5.072-24.327 20.997-55.755 33.699-90.149 33.699-73.788 0-133.922-58.461-136.61-131.592zM957.44 445.513c-158.72 168.448-323.072 249.344-488.96 236.544-247.296-17.408-401.92-231.936-409.6-241.152l-20.992-29.696 25.088-27.136c136.704-147.968 284.672-222.72 440.32-222.72h11.264c256 6.144 436.224 215.552 443.392 224.256l26.112 30.72zM512 251.977c-141.37 4.307-267.267 67.113-354.915 164.908 77.753 94.452 188.893 158.669 315.033 175.302 129.995 8.462 258.507-50.93 389.067-176.882-90.052-91.553-211.654-151.829-347.168-163.192z" />
<glyph unicode="&#xe94d;" glyph-name="edit-underline" horiz-adv-x="996" d="M953.863 749.798c0 9.352-4.676 18.703-9.352 23.379l-144.95 144.95c-14.027 14.027-32.731 14.027-46.758 0l-135.598-135.598c0 0 0 0 0 0s0 0 0 0l-430.174-430.174c0-4.676-4.676-9.352-4.676-14.027l-70.137-215.087c-4.676-14.027 0-23.379 9.352-32.731 4.676-4.676 14.027-9.352 23.379-9.352 4.676 0 9.352 0 9.352 0l215.087 74.813c4.676 0 9.352 4.676 14.027 9.352l425.498 425.498c0 0 0 0 0 0s0 0 0 0l135.598 135.598c4.676 4.676 9.352 14.027 9.352 23.379zM369.388 240.136l-98.192 98.192 369.388 369.388 98.192-98.192-369.388-369.388zM233.79 286.894l79.489-79.489-116.895-42.082 37.406 121.571zM785.534 660.957l-98.192 98.192 88.84 88.84 98.192-98.192-88.84-88.84zM743.452 53.104h-603.178c-18.703 0-32.731-14.027-32.731-32.731s14.027-32.731 32.731-32.731h603.178c18.703 0 32.731 14.027 32.731 32.731s-14.027 32.731-32.731 32.731z" />
<glyph unicode="&#xe94e;" glyph-name="smart-popup" horiz-adv-x="927" d="M865.28 710.217h-803.84c-12.8 0-23.040-10.24-23.040-23.040v-58.88h849.92v58.88c-2.56 12.8-10.24 23.040-23.040 23.040zM808.96 643.657c-12.8 0-23.040 10.24-23.040 23.040s10.24 23.040 23.040 23.040 23.040-10.24 23.040-23.040-10.24-23.040-23.040-23.040zM38.4 600.137v-478.72c0-17.92 15.36-33.28 33.28-33.28h780.8c17.92 0 33.28 15.36 33.28 33.28v478.72h-847.36zM284.16 484.937c0 10.24 7.68 17.92 17.92 17.92h322.56c10.24 0 17.92-7.68 17.92-17.92v-2.56c0-10.24-7.68-17.92-17.92-17.92h-325.12c-10.24 0-17.92 7.68-17.92 17.92v2.56zM599.040 175.177h-273.92c-25.6 0-48.64 23.040-48.64 48.64s23.040 48.64 48.64 48.64h276.48c25.6 0 48.64-23.040 48.64-48.64s-23.040-48.64-51.2-48.64zM775.68 377.417h-624.64c-10.24 0-20.48 7.68-20.48 20.48 0 10.24 7.68 20.48 20.48 20.48h624.64c10.24 0 20.48-7.68 20.48-20.48-2.56-12.8-10.24-20.48-20.48-20.48z" />
<glyph unicode="&#xe94f;" glyph-name="down" horiz-adv-x="1544" d="M0 950.857h1544.424l-773.148-1024-385.638 511.064-385.638 512.936z" />
<glyph unicode="&#xe950;" glyph-name="deleted_label" horiz-adv-x="2606" d="M1810.017 488.372c-0.344 0.011-0.749 0.018-1.155 0.018-9.768 0-18.659-3.751-25.313-9.892l0.025 0.023c-7.208-8.356-11.809-19.141-12.438-30.98l-0.005-0.129h76.735c-0.019 11.472-4.129 21.98-10.949 30.147l0.061-0.075c-6.35 6.735-15.333 10.928-25.295 10.928-0.586 0-1.169-0.015-1.748-0.043l0.081 0.003zM845.124 488.372c-0.344 0.011-0.749 0.018-1.155 0.018-9.768 0-18.659-3.751-25.313-9.892l0.025 0.023c-7.208-8.356-11.809-19.141-12.438-30.98l-0.005-0.129h75.18c0.004 0.219 0.006 0.477 0.006 0.735 0 11.154-3.914 21.395-10.443 29.423l0.068-0.086c-6.512 6.719-15.619 10.889-25.701 10.889-0.079 0-0.157 0-0.235-0.001h0.012zM1296.203 488.372c-0.344 0.011-0.749 0.018-1.155 0.018-9.768 0-18.659-3.751-25.313-9.892l0.025 0.023c-7.208-8.356-11.809-19.141-12.438-30.98l-0.005-0.129h76.735c0.004 0.219 0.006 0.477 0.006 0.735 0 11.154-3.914 21.395-10.443 29.423l0.068-0.086c-6.674 6.739-15.929 10.912-26.159 10.912-0.464 0-0.927-0.009-1.387-0.026l0.066 0.002zM2094.663 950.857h-1582.404c-4.857 0.165-10.565 0.259-16.295 0.259-282.913 0-512.259-229.346-512.259-512.259s229.346-512.259 512.259-512.259c5.73 0 11.439 0.094 17.123 0.281l-0.828-0.022h1582.404c275.814 9.053 495.964 234.817 495.964 512s-220.15 502.947-495.136 511.978l-0.828 0.022zM622.177 328.68c-31.336-28.178-73.006-45.412-118.701-45.412-3.659 0-7.292 0.111-10.897 0.328l0.496-0.024h-109.918v335.976h115.103c3.422 0.24 7.415 0.377 11.44 0.377 43.016 0 82.38-15.637 112.718-41.538l-0.241 0.201c27.158-27.971 43.902-66.183 43.902-108.306 0-3.669-0.127-7.308-0.377-10.913l0.027 0.486c0.423-4.554 0.664-9.848 0.664-15.198 0-44.62-16.775-85.323-44.363-116.144l0.146 0.166zM965.93 388.824h-161.248c-0.005-0.244-0.008-0.533-0.008-0.821 0-13.216 6.030-25.024 15.49-32.822l0.073-0.058c10.407-7.82 23.546-12.523 37.782-12.523 1.118 0 2.229 0.029 3.332 0.086l-0.154-0.006c0.142 0 0.31-0.001 0.478-0.001 15.057 0 29.761 1.51 43.97 4.387l-1.414-0.239c16.508 4.222 30.828 9.542 44.402 16.156l-1.368-0.601v-64.292c-12.6-6.655-27.225-11.712-42.665-14.39l-0.887-0.127c-14.216-2.663-30.571-4.187-47.282-4.187-1.605 0-3.207 0.014-4.806 0.042l0.24-0.003c-2.582-0.172-5.598-0.27-8.636-0.27-35.114 0-67.175 13.074-91.58 34.619l0.15-0.13c-22.298 23.093-36.037 54.576-36.037 89.269 0 2.887 0.095 5.752 0.282 8.592l-0.020-0.386c-0.174 2.637-0.273 5.716-0.273 8.819 0 35.052 12.648 67.149 33.63 91.978l-0.174-0.211c22.286 21.651 52.739 35 86.309 35 2.834 0 5.646-0.095 8.432-0.282l-0.377 0.020c3.251 0.304 7.030 0.478 10.85 0.478 30.073 0 57.634-10.758 79.044-28.635l-0.196 0.159c19.118-20.421 30.859-47.953 30.859-78.228 0-2.759-0.097-5.494-0.289-8.204l0.021 0.364zM1111.105 285.127h-91.253v354.641h89.179zM1416.49 388.824h-161.248c-0.005-0.244-0.008-0.533-0.008-0.821 0-13.216 6.030-25.024 15.49-32.822l0.073-0.058c10.407-7.82 23.546-12.523 37.782-12.523 1.118 0 2.229 0.029 3.332 0.086l-0.154-0.006c0.142 0 0.31-0.001 0.478-0.001 15.057 0 29.761 1.51 43.97 4.387l-1.414-0.239c16.252 4.117 30.401 9.441 43.757 16.116l-1.242-0.562v-64.292c-12.446-6.745-26.905-11.81-42.206-14.402l-0.828-0.116c-14.216-2.663-30.571-4.187-47.282-4.187-1.605 0-3.207 0.014-4.806 0.042l0.24-0.003c-2.582-0.172-5.598-0.27-8.636-0.27-35.114 0-67.175 13.074-91.58 34.619l0.15-0.13c-22.298 23.093-36.037 54.576-36.037 89.269 0 2.887 0.095 5.752 0.282 8.592l-0.020-0.386c-0.214 2.901-0.336 6.283-0.336 9.695 0 34.78 12.683 66.597 33.677 91.079l-0.158-0.188c22.136 21.662 52.465 35.029 85.917 35.029 2.972 0 5.92-0.106 8.839-0.313l-0.392 0.022c2.559 0.189 5.543 0.297 8.553 0.297 31.377 0 60.018-11.711 81.792-31l-0.129 0.112c18.737-20.334 30.225-47.598 30.225-77.545 0-2.086-0.056-4.159-0.166-6.218l0.012 0.287zM1642.029 293.423c-9.797-4.497-21.246-8.257-33.172-10.708l-1.048-0.18c-10.785-1.989-23.196-3.126-35.872-3.126-0.877 0-1.753 0.005-2.628 0.016l0.133-0.001c-1.868-0.147-4.045-0.231-6.242-0.231-23.261 0-44.327 9.397-59.609 24.603l0.003-0.003c-12.479 16.45-19.99 37.266-19.99 59.836 0 2.663 0.105 5.301 0.31 7.911l-0.022-0.345v106.807h-32.146v35.775l39.405 27.998 23.332 51.848h58.070v-51.848h63.255v-63.773h-63.255v-100.585c0-17.11 8.296-25.406 24.369-25.406 15.655 0.622 30.357 3.994 43.869 9.642l-0.835-0.31zM1930.823 388.824h-161.248c-0.005-0.244-0.008-0.533-0.008-0.821 0-13.216 6.030-25.024 15.49-32.822l0.073-0.058c10.293-7.829 23.327-12.542 37.462-12.542 1.231 0 2.453 0.036 3.666 0.106l-0.168-0.008c0.142 0 0.31-0.001 0.478-0.001 15.057 0 29.761 1.51 43.97 4.387l-1.414-0.239c16.252 4.117 30.401 9.441 43.757 16.116l-1.242-0.562v-64.292c-12.446-6.655-26.894-11.711-42.16-14.39l-0.874-0.127c-14.216-2.663-30.571-4.187-47.282-4.187-1.605 0-3.207 0.014-4.806 0.042l0.24-0.003c-2.582-0.172-5.598-0.27-8.636-0.27-35.114 0-67.175 13.074-91.58 34.619l0.15-0.13c-22.298 23.093-36.037 54.576-36.037 89.269 0 2.887 0.095 5.752 0.282 8.592l-0.020-0.386c-0.542 4.627-0.852 9.986-0.852 15.418 0 33.35 11.662 63.976 31.13 88.022l-0.206-0.263c25.399 21.625 58.589 34.78 94.852 34.78 33.944 0 65.197-11.526 90.056-30.879l-0.329 0.247c20.576-20.94 33.278-49.675 33.278-81.377 0-1.65-0.034-3.291-0.102-4.924l0.008 0.233zM2225.321 285.127h-67.403l-19.184 32.664h-3.111c-14.994-22.265-40.108-36.717-68.597-36.717-18.040 0-34.727 5.795-48.301 15.625l0.24-0.166c-14.798 11.712-25.97 27.405-31.95 45.464l-0.195 0.681c-7.266 19.828-11.468 42.721-11.468 66.596 0 1.742 0.022 3.479 0.067 5.21l-0.005-0.256c-0.157 2.71-0.247 5.88-0.247 9.070 0 32.971 9.558 63.711 26.054 89.598l-0.402-0.675c15.712 21.755 41.001 35.748 69.56 35.748 13.752 0 26.747-3.245 38.26-9.011l-0.494 0.224c12.427-7.117 22.566-16.925 29.866-28.68l0.206-0.355c-2.544 18.139-4.048 39.177-4.147 60.546v69.074h89.697zM2100.367 477.484c-0.119 0.002-0.26 0.003-0.401 0.003-11.605 0-21.648-6.689-26.483-16.422l-0.077-0.172c-6.317-12.087-10.023-26.4-10.023-41.579 0-1.971 0.062-3.927 0.186-5.867l-0.013 0.265c-0.127-1.731-0.199-3.749-0.199-5.785 0-14.595 3.723-28.321 10.27-40.279l-0.219 0.438c5.405-9.66 15.572-16.082 27.239-16.082 0.267 0 0.533 0.003 0.798 0.010l-0.039-0.001c0.902-0.086 1.951-0.135 3.010-0.135 11.047 0 20.852 5.315 26.999 13.527l0.063 0.088c5.91 11.241 9.379 24.563 9.379 38.694 0 0.979-0.017 1.954-0.050 2.925l0.004-0.141v7.259c0.196 2.217 0.308 4.796 0.308 7.401 0 15.112-3.759 29.346-10.393 41.818l0.234-0.482c-6.376 8.878-16.671 14.593-28.3 14.593-0.806 0-1.605-0.027-2.397-0.081l0.107 0.006zM499.297 546.96h-26.443v-186.653h20.221c1.897-0.178 4.103-0.279 6.332-0.279 21.362 0 40.553 9.294 53.75 24.059l0.061 0.070c11.129 17.152 17.745 38.127 17.745 60.648 0 4.206-0.231 8.358-0.68 12.444l0.045-0.504c0.195 2.415 0.307 5.229 0.307 8.069 0 22.353-6.9 43.094-18.687 60.21l0.233-0.358c-12.476 13.746-30.413 22.342-50.357 22.342-0.889 0-1.774-0.017-2.655-0.051l0.127 0.004z" />
<glyph unicode="&#xe951;" glyph-name="all-flows" d="M230.4 950.857h-174.080c-30.72 0-56.32-25.6-56.32-56.32v0-174.080c0-30.72 25.6-56.32 56.32-56.32v0h174.080c30.72 0 56.32 25.6 56.32 56.32v174.080c-5.12 30.72-25.6 56.32-56.32 56.32zM174.080 776.777h-66.56v66.56h66.56v-66.56zM599.040 950.857h-174.080c-30.72 0-56.32-25.6-56.32-56.32v-174.080c0-30.72 25.6-56.32 56.32-56.32v0h174.080c30.72 0 56.32 25.6 56.32 56.32v174.080c0 30.72-25.6 56.32-56.32 56.32v0zM547.84 776.777h-66.56v66.56h66.56v-66.56zM967.68 950.857h-174.080c-30.72 0-56.32-25.6-56.32-56.32v-174.080c0-30.72 25.6-56.32 56.32-56.32h174.080c30.72 0 56.32 25.6 56.32 56.32v174.080c0 30.72-25.6 56.32-56.32 56.32zM916.48 776.777h-66.56v66.56h66.56v-66.56zM230.4 577.097h-174.080c-30.72 0-56.32-20.48-56.32-51.2v-174.080c0-30.72 25.6-56.32 56.32-56.32h174.080c30.72 0 56.32 25.6 56.32 56.32v174.080c-5.12 30.72-25.6 51.2-56.32 51.2v0zM174.080 403.017h-66.56v66.56h66.56v-66.56zM599.040 577.097h-174.080c-30.72 0-56.32-25.6-56.32-56.32v-174.080c0-30.72 25.6-56.32 56.32-56.32v0h174.080c30.72 0 56.32 25.6 56.32 56.32v179.2c0 30.72-25.6 51.2-56.32 51.2v0zM547.84 403.017h-66.56v66.56h66.56v-66.56zM967.68 577.097h-174.080c-30.72 0-56.32-25.6-56.32-56.32v-174.080c0-30.72 25.6-56.32 56.32-56.32h174.080c30.72 0 56.32 25.6 56.32 56.32v179.2c0 30.72-25.6 51.2-56.32 51.2zM916.48 403.017h-66.56v66.56h66.56v-66.56zM230.4 208.457h-174.080c-30.72 0-56.32-25.6-56.32-56.32v-174.080c0-25.6 25.6-51.2 56.32-51.2h174.080c30.72 0 56.32 25.6 56.32 56.32v174.080c-5.12 30.72-25.6 51.2-56.32 51.2zM174.080 34.377h-66.56v66.56h66.56v-66.56zM599.040 208.457h-174.080c-30.72 0-56.32-25.6-56.32-56.32v-174.080c0-30.72 25.6-56.32 56.32-56.32h174.080c30.72 0 56.32 25.6 56.32 56.32v174.080c0 35.84-25.6 56.32-56.32 56.32zM547.84 34.377h-66.56v66.56h66.56v-66.56zM967.68 208.457h-174.080c-30.72 0-56.32-25.6-56.32-56.32v-174.080c0-30.72 25.6-56.32 56.32-56.32h174.080c30.72 0 56.32 25.6 56.32 56.32v174.080c0 35.84-25.6 56.32-56.32 56.32zM916.48 34.377h-66.56v66.56h66.56v-66.56z" />
<glyph unicode="&#xe952;" glyph-name="apply-tags" d="M930.909 476.093c0 0 0 0 0 0v0l-465.455 465.455c-4.655 4.655-13.964 9.309-23.273 9.309h-274.618c-55.855 0-102.4-46.545-102.4-102.4 0 0 0 0 0 0v-274.618c0-9.309 4.655-18.618 9.309-23.273l190.836-190.836c13.964 18.618 27.927 37.236 41.891 55.855l-116.364 111.709-60.509 60.509v260.655c0 18.618 13.964 32.582 32.582 32.582 0 0 0 0 0 0h260.655l451.491-451.491c4.655-4.655 9.309-13.964 9.309-23.273s-4.655-18.618-9.309-23.273l-55.855-55.855c9.309-23.273 18.618-46.545 23.273-74.473l83.782 83.782c41.891 37.236 41.891 97.745 4.655 139.636zM358.4 750.712c0 41.891-37.236 79.127-79.127 79.127s-79.127-32.582-79.127-79.127c0-41.891 37.236-79.127 79.127-79.127s79.127 37.236 79.127 79.127c0 0 0 0 0 0zM279.273 736.748c-9.309 0-13.964 9.309-13.964 13.964-4.655 9.309 4.655 13.964 13.964 13.964s13.964-9.309 13.964-13.964c0-9.309-4.655-13.964-13.964-13.964zM535.273 438.857c-139.636 0-256-116.364-256-256s116.364-256 256-256c139.636 0 256 116.364 256 256s-116.364 256-256 256zM535.273-3.325c-102.4 0-186.182 83.782-186.182 186.182s83.782 186.182 186.182 186.182c102.4 0 186.182-83.782 186.182-186.182s-83.782-186.182-186.182-186.182zM572.509 220.093v74.473c0 18.618-18.618 37.236-37.236 37.236s-37.236-18.618-37.236-37.236c0 0 0 0 0 0v-74.473h-79.127c-18.618 0-37.236-18.618-37.236-37.236s18.618-37.236 37.236-37.236h74.473v-74.473c0-18.618 18.618-37.236 37.236-37.236s37.236 18.618 37.236 37.236c0 0 0 0 0 0v74.473h74.473c18.618 0 37.236 18.618 37.236 37.236s-18.618 37.236-37.236 37.236h-69.818z" />
</font>
</defs>
</svg>
