<?xml version="1.0" encoding="utf-8"?>
<!-- Generator: Adobe Illustrator 21.1.0, SVG Export Plug-In . SVG Version: 6.00 Build 0)  -->
<svg version="1.1" id="Layer_1" xmlns="http://www.w3.org/2000/svg" xmlns:xlink="http://www.w3.org/1999/xlink" x="0px" y="0px"
	 viewBox="0 0 43 43" enable-background="new 0 0 43 43" xml:space="preserve">
<path fill="#FFFFFF" d="M34.9,3.4h-4.5C30,1.4,28.3,0,26.3,0h-9.5c-2,0-3.7,1.4-4.1,3.4H8.1c-1.9,0-3.4,1.5-3.4,3.4v32.8
	c0,1.9,1.5,3.4,3.4,3.4h26.7c1.9,0,3.4-1.5,3.4-3.4V6.8C38.3,4.9,36.8,3.4,34.9,3.4z M16.7,2.4h9.5c1,0,1.9,0.8,1.9,1.9
	c0,1-0.8,1.9-1.9,1.9h-9.5c-1,0-1.9-0.8-1.9-1.9C14.9,3.2,15.7,2.4,16.7,2.4z M16.8,31.6l-5,3.4c0,0-0.1,0-0.1,0.1c0,0-0.1,0-0.1,0
	c-0.1,0-0.2,0-0.3,0c-0.1,0-0.3,0-0.4-0.1c0,0-0.1-0.1-0.1-0.1c-0.1,0-0.1-0.1-0.2-0.2l-1.5-1.7c-0.3-0.4-0.3-1,0.1-1.3
	c0.4-0.3,1-0.3,1.3,0.1l0.9,1l4.3-3c0.4-0.3,1-0.2,1.3,0.2C17.3,30.8,17.2,31.3,16.8,31.6z M16.8,23.2l-5,3.4c0,0-0.1,0-0.1,0.1
	c0,0-0.1,0-0.1,0c-0.1,0-0.2,0-0.3,0c-0.1,0-0.3,0-0.4-0.1c0,0-0.1-0.1-0.1-0.1c-0.1,0-0.1-0.1-0.2-0.2l-1.5-1.7
	c-0.3-0.4-0.3-1,0.1-1.3c0.4-0.3,1-0.3,1.3,0.1l0.9,1l4.3-3c0.4-0.3,1-0.2,1.3,0.2C17.3,22.3,17.2,22.9,16.8,23.2z M16.8,14.8
	l-5,3.4c0,0-0.1,0-0.1,0.1c0,0-0.1,0-0.1,0c-0.1,0-0.2,0-0.3,0c-0.1,0-0.3,0-0.4-0.1c0,0-0.1-0.1-0.1-0.1c-0.1,0-0.1-0.1-0.2-0.2
	l-1.5-1.7c-0.3-0.4-0.3-1,0.1-1.3c0.4-0.3,1-0.3,1.3,0.1l0.9,1l4.3-3c0.4-0.3,1-0.2,1.3,0.2C17.3,13.9,17.2,14.5,16.8,14.8z
	 M32.8,34.1H21.4c-0.5,0-0.9-0.4-0.9-0.9c0-0.5,0.4-0.9,0.9-0.9h11.4c0.5,0,0.9,0.4,0.9,0.9C33.8,33.7,33.3,34.1,32.8,34.1z
	 M32.8,25.3H21.4c-0.5,0-0.9-0.4-0.9-0.9s0.4-0.9,0.9-0.9h11.4c0.5,0,0.9,0.4,0.9,0.9S33.3,25.3,32.8,25.3z M32.8,16.6H21.4
	c-0.5,0-0.9-0.4-0.9-0.9c0-0.5,0.4-0.9,0.9-0.9h11.4c0.5,0,0.9,0.4,0.9,0.9C33.8,16.2,33.3,16.6,32.8,16.6z"/>
</svg>
